<?xml version="1.0" encoding="utf-8"?>
<!-- Generator: Adobe Illustrator 16.0.0, SVG Export Plug-In . SVG Version: 6.00 Build 0)  -->
<!DOCTYPE svg PUBLIC "-//W3C//DTD SVG 1.1//EN" "http://www.w3.org/Graphics/SVG/1.1/DTD/svg11.dtd">
<svg version="1.1" id="Layer_1" xmlns="http://www.w3.org/2000/svg" xmlns:xlink="http://www.w3.org/1999/xlink" x="0px" y="0px"
	 width="56.931px" height="56.93px" viewBox="0 0 56.931 56.93" enable-background="new 0 0 56.931 56.93" xml:space="preserve">
<g display="none">
	<circle display="inline" fill="#65A7DB" cx="159.403" cy="27.707" r="28.465"/>
	<g display="inline">
		<path fill="#FFFFFF" d="M144.518,29.605v10.217h-2.01V15.236h8.462c2.577,0,4.573,0.656,5.985,1.967
			c1.414,1.312,2.12,3.049,2.12,5.209c0,2.186-0.706,3.932-2.12,5.236c-1.412,1.307-3.408,1.957-5.985,1.957H144.518z
			 M144.518,27.887h6.452c2.025,0,3.548-0.518,4.567-1.547c1.019-1.031,1.528-2.326,1.528-3.893c0-1.576-0.507-2.885-1.521-3.926
			c-1.013-1.041-2.538-1.562-4.575-1.562h-6.452V27.887z"/>
		<path fill="#FFFFFF" d="M174.29,35.172c0-0.855-0.353-1.602-1.056-2.242c-0.704-0.639-1.974-1.162-3.808-1.566
			c-2.185-0.473-3.798-1.098-4.838-1.875c-1.042-0.775-1.563-1.873-1.563-3.293c0-1.395,0.588-2.574,1.765-3.537
			c1.178-0.965,2.733-1.443,4.671-1.443c2.059,0,3.691,0.51,4.896,1.527c1.205,1.02,1.778,2.295,1.723,3.826l-0.033,0.1h-1.875
			c0-1-0.426-1.875-1.275-2.617c-0.851-0.742-1.996-1.113-3.436-1.113c-1.477,0-2.582,0.316-3.319,0.949s-1.106,1.375-1.106,2.227
			c0,0.838,0.318,1.535,0.954,2.082c0.637,0.549,1.906,1.031,3.81,1.445c2.172,0.486,3.799,1.15,4.879,1.992
			c1.081,0.84,1.622,1.984,1.622,3.43c0,1.523-0.616,2.758-1.85,3.703c-1.232,0.941-2.862,1.412-4.889,1.412
			c-2.218,0-3.96-0.527-5.227-1.586c-1.266-1.059-1.866-2.32-1.799-3.781l0.034-0.104h1.856c0.079,1.311,0.617,2.264,1.614,2.857
			c0.995,0.594,2.169,0.893,3.521,0.893c1.463,0,2.618-0.322,3.462-0.961S174.29,36.08,174.29,35.172z"/>
	</g>
</g>
<g display="none">
	<circle display="inline" fill="#FDB736" cx="224.304" cy="27.707" r="28.466"/>
	<g display="inline">
		<path fill="#FFFFFF" d="M226.199,33.17h-11.264l-2.533,6.855h-2.094l9.339-24.588h1.909l9.271,24.588h-2.096L226.199,33.17z
			 M215.612,31.363h9.929l-4.896-13.309h-0.103L215.612,31.363z"/>
		<rect x="234.289" y="15.389" fill="#FFFFFF" width="2.01" height="2.838"/>
		<rect x="234.289" y="21.752" fill="#FFFFFF" width="2.01" height="18.273"/>
	</g>
</g>
<g display="none">
	<circle display="inline" fill="#0871B9" cx="93.935" cy="-37.762" r="28.465"/>
	<path display="inline" fill-rule="evenodd" clip-rule="evenodd" fill="#FFFFFF" d="M93.856-19.587
		c-3.618-1.011-7.233-2.028-10.854-3.03c-1.663-0.461-1.642-0.447-1.772-2.143c-0.189-2.428-0.397-4.855-0.649-7.278
		c-0.053-0.524,0.09-0.601,0.549-0.595c1.665,0.021,3.332,0.027,4.997-0.004c0.493-0.01,0.593,0.171,0.619,0.618
		c0.069,1.203,0.199,2.403,0.298,3.604c0.035,0.414,0.143,0.676,0.636,0.796c1.964,0.478,3.913,1.022,5.867,1.542
		c0.135,0.143,0.296,0.137,0.468,0.092c2.021-0.553,4.043-1.105,6.067-1.648c0.29-0.078,0.436-0.19,0.468-0.523
		c0.211-2.254,0.442-4.508,0.68-6.76c0.055-0.51-0.271-0.457-0.592-0.459c-2.245-0.002-4.491-0.015-6.737-0.015
		c-4.419,0.003-8.839,0.01-13.259,0.015c-0.319-1.168-0.248-2.381-0.403-3.568c-0.103-0.789-0.11-1.588-0.163-2.382
		c6.982-0.01,13.964-0.025,20.946-0.018c0.551,0,0.792-0.083,0.836-0.721c0.106-1.585,0.306-3.165,0.503-4.743
		c0.059-0.463-0.015-0.643-0.533-0.637c-2.656,0.027-5.314,0.019-7.971,0.023c-4.517-0.008-9.035-0.027-13.553-0.003
		c-0.639,0.003-0.804-0.176-0.835-0.798c-0.074-1.443-0.226-2.887-0.39-4.324c-0.069-0.597,0.009-0.833,0.716-0.828
		c4.685,0.029,9.372,0.004,14.059-0.003c0.12,0.003,0.241,0.011,0.361,0.011c4.64,0,9.281,0.009,13.92-0.012
		c0.554-0.004,0.734,0.148,0.661,0.696c-0.115,0.835-0.195,1.677-0.269,2.517c-0.341,3.939-0.666,7.881-1.01,11.818
		c-0.432,4.926-0.883,9.85-1.304,14.775c-0.036,0.421-0.137,0.615-0.577,0.734C101.704-21.771,97.781-20.675,93.856-19.587z"/>
</g>
<g display="none">
	<circle display="inline" fill="#C52126" cx="28.465" cy="-37.762" r="28.465"/>
	<polygon display="inline" fill="#FFFFFF" points="36.765,-35.332 36.074,-27.596 29.426,-25.8 29.411,-25.795 22.767,-27.588 
		22.342,-32.351 16.35,-32.351 17.186,-22.979 29.411,-19.587 29.418,-19.587 29.426,-19.587 29.438,-19.591 41.65,-22.979 
		43.289,-41.299 21.541,-41.299 20.997,-47.41 43.81,-47.41 43.831,-47.41 44.365,-53.377 14.474,-53.377 16.083,-35.332 
		36.765,-35.332 	"/>
</g>
<g display="none">
	<circle display="inline" fill="#63A944" cx="159.403" cy="-37.762" r="28.465"/>
	<path display="inline" fill-rule="evenodd" clip-rule="evenodd" fill="#FFFFFE" d="M160.236-19.587
		c-2.188-0.618-4.372-1.245-6.562-1.854c-1.637-0.456-3.276-0.906-4.923-1.328c-0.548-0.14-0.783-0.345-0.819-0.986
		c-0.154-2.686-0.39-5.365-0.631-8.042c-0.037-0.423,0.034-0.552,0.462-0.548c1.636,0.019,3.271,0.018,4.906,0
		c0.358-0.003,0.509,0.096,0.537,0.473c0.102,1.268,0.234,2.532,0.359,3.799c0.021,0.205-0.023,0.451,0.271,0.52
		c2.144,0.502,4.234,1.203,6.398,1.625c2.144-0.402,4.206-1.117,6.323-1.625c0.264-0.062,0.299-0.246,0.321-0.485
		c0.276-2.915,0.572-5.829,0.85-8.746c0.312-3.25,0.592-6.505,0.925-9.753c0.105-1.035,0.169-0.902-0.84-0.904
		c-7.336-0.01-14.673-0.018-22.009-0.025c-0.135-1.719-0.249-3.441-0.416-5.158c-0.056-0.561,0.066-0.731,0.659-0.729
		c4.442,0.027,8.884,0.017,13.324,0.014c0.288,0,0.574-0.023,0.862-0.035c0.264,0.009,0.526,0.025,0.791,0.025
		c4.472,0.002,8.944,0.016,13.416-0.014c0.626-0.004,0.768,0.156,0.684,0.758c-0.144,1.045-0.207,2.101-0.301,3.152
		c-0.353,4.02-0.695,8.037-1.058,12.055c-0.408,4.518-0.854,9.033-1.229,13.553c-0.057,0.66-0.229,0.93-0.882,1.104
		C167.842-21.722,164.042-20.646,160.236-19.587z"/>
</g>
<g display="none">
	<circle display="inline" fill="#E15554" cx="224.304" cy="-37.762" r="28.466"/>
	<g display="inline">
		<g>
			<path fill-rule="evenodd" clip-rule="evenodd" fill="#FFFFFF" d="M207.278-54.658c2.509,2.364,5.041,4.75,7.574,7.137
				c7.624,7.187,15.247,14.37,22.868,21.558c0.281,0.265,0.615,0.49,0.705,0.909c0.148,0.685-0.09,1.225-0.666,1.576
				c-0.674,0.412-1.291,0.209-1.803-0.33c-1.346-1.412-2.678-2.836-4.012-4.259c-8.225-8.751-16.446-17.503-24.67-26.253
				C207.192-54.406,207.107-54.468,207.278-54.658z"/>
			<path fill-rule="evenodd" clip-rule="evenodd" fill="#FFFFFF" d="M216.952-51.476c0.438-0.116,0.552,0.176,0.717,0.326
				c7.534,6.954,15.058,13.915,22.589,20.87c0.379,0.352,0.719,0.698,0.668,1.271c-0.057,0.617-0.367,1.056-0.936,1.269
				c-0.621,0.233-1.15,0.005-1.58-0.458c-1.328-1.427-2.645-2.865-3.967-4.297c-5.689-6.164-11.375-12.326-17.061-18.488
				C217.251-51.125,217.129-51.273,216.952-51.476z"/>
			<path fill-rule="evenodd" clip-rule="evenodd" fill="#FFFFFF" d="M209.978-44.98c2.771,2.555,5.488,5.059,8.201,7.568
				c4.948,4.574,9.896,9.15,14.843,13.728c1.016,0.94,1.164,1.687,0.48,2.394c-0.666,0.689-1.516,0.533-2.42-0.447
				c-6.305-6.836-12.609-13.675-18.914-20.514c-0.602-0.65-1.202-1.303-1.806-1.955C210.182-44.404,209.962-44.585,209.978-44.98z"
				/>
			<path fill-rule="evenodd" clip-rule="evenodd" fill="#FFFFFF" d="M225.377-48.854c0.414-0.019,0.549,0.271,0.736,0.444
				c4.936,4.55,9.863,9.107,14.789,13.661c0.602,0.556,0.686,1.12,0.254,1.581c-0.426,0.445-1.008,0.42-1.529-0.143
				c-4.742-5.133-9.477-10.272-14.211-15.414C225.398-48.742,225.4-48.775,225.377-48.854z"/>
			<path fill-rule="evenodd" clip-rule="evenodd" fill="#FFFFFF" d="M212.66-36.428c0.411-0.135,0.577,0.194,0.783,0.385
				c4.773,4.401,9.543,8.81,14.309,13.219c0.641,0.59,0.717,1.078,0.268,1.572c-0.436,0.48-1.023,0.436-1.58-0.166
				c-4.563-4.934-9.116-9.869-13.671-14.805C212.722-36.274,212.699-36.35,212.66-36.428z"/>
			<path fill-rule="evenodd" clip-rule="evenodd" fill="#FFFFFF" d="M233.852-45.314c1.98,1.822,3.959,3.641,5.941,5.459
				c0.223,0.204,0.398,0.426,0.15,0.707c-0.221,0.256-0.508,0.243-0.727,0.004c-1.826-1.997-3.645-4.004-5.463-6.012
				C233.748-45.161,233.779-45.199,233.852-45.314z"/>
			<path fill-rule="evenodd" clip-rule="evenodd" fill="#FFFFFF" d="M216.815-28.123c0.233-0.014,0.426,0.055,0.604,0.22
				c1.594,1.472,3.192,2.938,4.792,4.403c0.246,0.228,0.436,0.474,0.124,0.771c-0.255,0.244-0.517,0.152-0.728-0.08
				c-1.594-1.771-3.302-3.44-4.788-5.309L216.815-28.123z"/>
		</g>
	</g>
</g>
<g>
	<path opacity="0.95" fill="#E43137" d="M56.931,28.467c0,15.719-12.744,28.463-28.465,28.463C12.744,56.93,0,44.186,0,28.467
		C0,12.744,12.744,0,28.466,0C44.187,0,56.931,12.744,56.931,28.467z"/>
	<g>
		<path fill-rule="evenodd" clip-rule="evenodd" fill="#FFFFFE" d="M45.331,16.783c-0.341,2.779-0.666,5.381-0.979,7.984
			c-0.26,2.166-0.504,4.334-0.762,6.502c-0.276,2.307-0.564,4.609-0.838,6.912c-0.034,0.287-0.214,0.41-0.433,0.529
			c-2.492,1.383-4.98,2.773-7.475,4.152c-2.002,1.111-4.015,2.203-6.009,3.326c-0.37,0.209-0.65,0.17-0.996-0.021
			c-4.358-2.408-8.709-4.832-13.097-7.184c-0.835-0.447-0.708-1.15-0.79-1.789c-0.472-3.633-0.901-7.271-1.335-10.908
			c-0.338-2.84-0.671-5.684-0.987-8.529c-0.147-1.324-0.122-1.314,1.166-1.768c4.979-1.748,9.954-3.5,14.928-5.266
			c0.441-0.156,0.838-0.168,1.282-0.016c5.291,1.828,10.584,3.652,15.886,5.449C45.38,16.324,45.4,16.572,45.331,16.783z
			 M13.411,18.164c0.74,6.408,1.473,12.727,2.192,19.051c0.035,0.295,0.198,0.406,0.414,0.525c3.953,2.191,7.906,4.379,11.851,6.586
			c0.345,0.193,0.592,0.172,0.926-0.012c3.895-2.172,7.791-4.342,11.709-6.471c0.55-0.299,0.747-0.662,0.813-1.25
			c0.274-2.41,0.587-4.82,0.888-7.23c0.469-3.744,0.932-7.488,1.42-11.23c0.055-0.41-0.073-0.551-0.437-0.674
			c-4.81-1.629-9.614-3.271-14.42-4.914c-0.294-0.102-0.563-0.113-0.866-0.004c-4.667,1.676-9.337,3.342-14.009,5
			C13.53,17.67,13.242,17.787,13.411,18.164z"/>
		<path fill-rule="evenodd" clip-rule="evenodd" fill="#FFFFFE" d="M28.196,13.822c0.2-0.102,0.207-0.105,0.32,0.137
			c0.712,1.508,1.421,3.016,2.128,4.525c2.778,5.928,5.556,11.857,8.329,17.787c0.082,0.176,0.221,0.34,0.195,0.562
			c-1.126,0-2.247-0.008-3.367,0.006c-0.335,0.004-0.383-0.232-0.476-0.449c-0.63-1.457-1.269-2.91-1.876-4.373
			c-0.155-0.375-0.354-0.496-0.763-0.49c-1.466,0.02-2.933-0.008-4.4-0.018c0.005-1.029,0.01-2.057,0.015-3.086
			c0.981-0.008,1.963-0.031,2.941-0.014c0.455,0.01,0.626-0.033,0.378-0.537c-1.013-2.068-1.992-4.15-2.989-6.223
			c-0.083-0.174-0.122-0.391-0.336-0.477c0.227-0.635-0.005-1.268-0.005-1.9c0.001-1.604,0-3.205-0.006-4.809
			C28.284,14.248,28.341,14.021,28.196,13.822z"/>
		<path fill-rule="evenodd" clip-rule="evenodd" fill="#FFFFFE" d="M28.302,28.424c-0.005,1.029-0.01,2.057-0.015,3.086
			c-1.305,0.01-2.607,0.033-3.912,0.016c-0.382-0.004-0.56,0.113-0.696,0.477c-0.548,1.441-1.142,2.865-1.697,4.305
			c-0.125,0.328-0.284,0.465-0.653,0.455c-1.122-0.027-2.246-0.01-3.449-0.01c3.435-7.631,6.876-15.279,10.317-22.93
			c0.145,0.199,0.088,0.426,0.089,0.643c0.006,1.604,0.007,3.205,0.006,4.809c0,0.633,0.231,1.266,0.005,1.9
			c-0.999,2.391-1.999,4.779-3.032,7.25C26.344,28.424,27.322,28.424,28.302,28.424z"/>
	</g>
</g>
</svg>
