<?xml version="1.0" encoding="utf-8"?>
<!-- Generator: Adobe Illustrator 16.0.0, SVG Export Plug-In . SVG Version: 6.00 Build 0)  -->
<!DOCTYPE svg PUBLIC "-//W3C//DTD SVG 1.1//EN" "http://www.w3.org/Graphics/SVG/1.1/DTD/svg11.dtd">
<svg version="1.1" id="Layer_1" xmlns="http://www.w3.org/2000/svg" xmlns:xlink="http://www.w3.org/1999/xlink" x="0px" y="0px"
	 width="200px" height="61.905px" viewBox="0 0 200 61.905" enable-background="new 0 0 200 61.905" xml:space="preserve">
<circle fill="#D24E53" cx="99.745" cy="31.193" r="28.466"/>
<g>
	<rect x="82.4" y="19.66" fill="#FFFFFF" width="34.689" height="24.515"/>
	<path fill="#010101" d="M117.942,45.028H81.549v-26.22h36.394V45.028z M82.4,44.175h34.689V19.66H82.4V44.175z"/>
	<g>
		<path fill="#010101" d="M85.17,21.267c0-0.542-0.449-0.982-1.004-0.982c-0.553,0-1.002,0.44-1.002,0.982
			c0,0.541,0.449,0.981,1.002,0.981C84.721,22.248,85.17,21.808,85.17,21.267z"/>
		<rect x="84.074" y="42.186" fill="#010101" width="5.467" height="1.184"/>
		<path fill="#010101" d="M112.137,21.712c-1.71,0-3.098,1.357-3.098,3.03c0,1.492,1.101,2.727,2.551,2.981v9.364l-0.715,0.697
			l-0.385-0.375l-3.318,3.244l0.629,0.615l0.531,0.521v-0.002l0.387,0.379l3.319-3.248l-0.386-0.376l1.032-1.011v-9.809
			c1.447-0.252,2.55-1.489,2.55-2.981C115.234,23.069,113.847,21.712,112.137,21.712z M112.685,26.408v-1.665h-1.095v1.665
			c-0.724-0.228-1.25-0.882-1.25-1.667c0-0.972,0.805-1.758,1.797-1.758s1.798,0.787,1.798,1.758
			C113.933,25.526,113.406,26.182,112.685,26.408z"/>
		<path fill="#010101" d="M115.363,41.567c-0.553,0-1.004,0.439-1.004,0.98s0.451,0.982,1.004,0.982s1.003-0.441,1.003-0.982
			S115.917,41.567,115.363,41.567z"/>
	</g>
	<g>
		<g>
			<path fill="#010101" d="M95.322,20.805c-6.156,0-11.15,4.882-11.15,10.906c0,6.023,4.994,10.907,11.15,10.907
				s11.148-4.884,11.148-10.907C106.471,25.687,101.48,20.805,95.322,20.805z M91.353,31.711c0-2.146,1.776-3.884,3.97-3.884
				c2.191,0,3.971,1.738,3.971,3.884c0,2.145-1.777,3.884-3.971,3.884C93.13,35.595,91.353,33.856,91.353,31.711z M97.184,36.409
				c1.258-0.402,2.281-1.318,2.797-2.499l0.166,0.076c-0.539,1.222-1.596,2.175-2.896,2.591L97.184,36.409z M97.584,37.432
				c1.512-0.531,2.74-1.644,3.402-3.061l0.175,0.08c-0.683,1.465-1.948,2.61-3.508,3.16L97.584,37.432z M97.984,38.454
				c1.766-0.656,3.202-1.962,4.006-3.621l0.187,0.087c-0.826,1.706-2.303,3.05-4.118,3.727L97.984,38.454z M98.384,39.477
				c2.021-0.78,3.667-2.282,4.611-4.182l0.198,0.09c-0.969,1.949-2.657,3.494-4.73,4.295L98.384,39.477z M98.869,40.717
				l-0.084-0.214c2.276-0.901,4.141-2.601,5.224-4.742l0.208,0.095C103.107,38.051,101.201,39.792,98.869,40.717z"/>
		</g>
		<path fill="#010101" d="M95.322,30.767c-0.533,0-0.965,0.422-0.965,0.944c0,0.52,0.432,0.943,0.965,0.943
			c0.531,0,0.965-0.421,0.965-0.943S95.854,30.767,95.322,30.767z M95.322,32.262c-0.312,0-0.564-0.246-0.564-0.551
			c0-0.305,0.252-0.552,0.564-0.552s0.564,0.248,0.564,0.552C95.887,32.016,95.635,32.262,95.322,32.262z"/>
	</g>
</g>
<circle fill="#3B8DC7" cx="33.746" cy="31.193" r="28.465"/>
<g>
	<path d="M21.208,47.53V14.856c0-0.759,0.76-0.759,0.76-0.759h17.477l6.839,6.837V47.53c0,0.76-0.76,0.76-0.76,0.76H21.968
		C21.968,48.29,21.208,48.29,21.208,47.53z"/>
	<path fill="#FFFFFF" d="M22.348,46.435V15.951c0-0.714,0.691-0.714,0.691-0.714h15.266v6.079c0,0.759,0.76,0.759,0.76,0.759h6.078
		v24.361c0,0.713-0.691,0.713-0.691,0.713H23.039C23.039,47.149,22.348,47.149,22.348,46.435z"/>
	<polygon points="31.135,38.825 24.236,35.053 24.236,32.963 31.135,29.208 31.135,31.668 26.322,33.982 31.135,36.381 	"/>
	<polygon points="31.771,40.483 34.264,27.395 35.713,27.395 33.193,40.483 	"/>
	<polygon points="36.35,38.834 36.35,36.391 41.169,34.008 36.35,31.65 36.35,29.224 43.256,32.981 43.256,35.053 	"/>
</g>
<circle fill="#FDDE71" cx="165.746" cy="31.148" r="28.465"/>
<g>
	<path fill="#010101" d="M177.216,13.643c-0.05-0.027-0.153-0.107-0.262,0.016c-0.027,0.032-0.067,0.098-0.067,0.098
		s-0.062,0.19,0.037,0.27c0.091,0.076,0.223,0.119,0.324-0.062l0.126,0.041l0.024-0.075l-0.116-0.038
		C177.358,13.704,177.263,13.667,177.216,13.643z"/>
	<path fill="#010101" d="M176.946,14.462c-0.05-0.027-0.153-0.107-0.262,0.017c-0.028,0.03-0.066,0.098-0.066,0.098
		s-0.062,0.189,0.036,0.269c0.094,0.076,0.22,0.121,0.324-0.063l0.126,0.042l0.024-0.076l-0.116-0.036
		C177.092,14.523,176.992,14.488,176.946,14.462z"/>
	<path fill="#010101" d="M176.704,15.307c-0.048-0.027-0.153-0.109-0.262,0.017c-0.026,0.031-0.064,0.098-0.064,0.098
		s-0.063,0.188,0.038,0.27c0.09,0.076,0.219,0.119,0.322-0.063l0.124,0.042l0.024-0.077l-0.116-0.036
		C176.85,15.369,176.754,15.331,176.704,15.307z"/>
	<path fill="#010101" d="M176.454,16.127c-0.049-0.029-0.152-0.108-0.259,0.016c-0.029,0.031-0.067,0.099-0.067,0.099
		s-0.062,0.188,0.036,0.269c0.093,0.075,0.222,0.12,0.326-0.064l0.124,0.043l0.023-0.075l-0.116-0.037
		C176.601,16.188,176.502,16.152,176.454,16.127z"/>
	<path fill="#010101" d="M176.215,16.951c-0.051-0.027-0.153-0.106-0.261,0.017c-0.028,0.03-0.067,0.099-0.067,0.099
		s-0.062,0.189,0.037,0.269c0.094,0.075,0.22,0.121,0.324-0.064l0.126,0.043l0.024-0.076l-0.119-0.036
		C176.358,17.013,176.262,16.977,176.215,16.951z"/>
	<path fill="#010101" d="M175.96,17.778c-0.048-0.027-0.152-0.107-0.262,0.017c-0.028,0.03-0.064,0.1-0.064,0.1
		s-0.062,0.187,0.036,0.267c0.094,0.076,0.22,0.121,0.326-0.063l0.122,0.042l0.025-0.076l-0.116-0.036
		C176.106,17.839,176.008,17.804,175.96,17.778z"/>
	<g>
		<path fill="#010101" d="M178.369,13.512c-0.227-0.214-0.704-0.202-0.841,0.057c-0.136,0.258-1.538,4.889-1.595,5.075
			c-0.06,0.188,0.022,0.253,0.156,0.417c0.133,0.163,0.367,0.436,0.362,0.551c-0.005,0.117-0.351,14.408-0.351,14.408
			s-0.096,0.506-0.504,0.275c-0.405-0.23-1.255-0.763-1.89-0.688c-0.633,0.074-1.114,0.196-1.473,1.229
			c-0.358,1.033,0.304,2.297,0.476,2.82c0.17,0.523,0.493,1.171,0.084,2.32c-0.408,1.15-1.268,2.516-1.401,3.559
			c-0.133,1.043-0.069,2.75,1.317,3.613c1.391,0.863,4.779,0.734,6.002,0.654c1.222-0.076,2.173-0.23,3.223-1.362
			c1.053-1.134,0.482-3.231,0.376-3.508c-0.107-0.277-0.776-1.927-0.979-2.308c-0.205-0.381-0.751-1.65,0.005-3.077
			c0.754-1.426,0.67-2.899-0.062-3.46s-1.052,0.602-1.173,1.104c-0.121,0.502-1.331,1.498-1.916,0.574
			c-0.111-0.255-0.17-0.84-0.176-1.112c-0.002-0.272-0.057-14.967-0.057-14.967s-0.074-0.682-0.069-0.744
			c0.002-0.062,0.444-1.635,0.62-2.092c0.172-0.457-0.055-1.155-0.15-1.372c-0.097-0.219-0.148-0.43,0.11-0.739
			C178.719,14.434,178.969,14.078,178.369,13.512z"/>
		<path fill="#FFFFFF" d="M175.73,43.578c-0.068,0.003-0.148-0.013-0.143-0.292c0.004-0.279,0.034-2.709,0.034-2.709l2.744-0.004
			c0,0,0.059,2.873-0.012,2.959c-0.077,0.084-0.134,0.073-0.232,0.073C178.022,43.603,175.806,43.578,175.73,43.578z"/>
		<path fill="#FFFFFF" d="M180.671,40.74c0.003,0.016,0.005,0.049,0.005,0.093c0.002,0.081,0.005,0.198,0.008,0.301
			c0.002,0.121,0.004,0.227,0.008,0.26c0.004,0.092-0.032,3.836-0.04,3.963c-0.006,0.08-0.062,0.281-0.216,0.392
			c-0.068,0.052-0.152,0.08-0.246,0.081c-0.178,0.004-0.314-0.035-0.408-0.114c-0.088-0.077-0.138-0.194-0.141-0.344
			c-0.005-0.334,0.03-4.367,0.03-4.489c0.002-0.021,0.004-0.038,0.007-0.058c0.022-0.174,0.071-0.28,0.158-0.345
			c0.079-0.06,0.195-0.087,0.381-0.093C180.597,40.377,180.671,40.738,180.671,40.74z"/>
		<path fill="#FFFFFF" d="M179.339,36.448c1.006-0.311,1.221-1.807,1.271-1.914c0.05-0.106,0.236-0.561,0.67-0.264
			c0.429,0.299,0.558,1.477,0.28,2.285c-0.278,0.812-0.486,1.162-0.592,1.451c-0.108,0.289-0.292,1.023-0.131,1.626
			c0.165,0.603,0.422,1.081,0.38,1.139c-0.045,0.058-0.081,0.072-0.158,0.074c-0.057,0.001-0.193-0.005-0.255-0.011
			c-0.002-0.051-0.004-0.09-0.007-0.109c-0.01-0.095-0.151-0.477-0.583-0.464c-0.213,0.005-0.353,0.041-0.455,0.116
			c-0.115,0.086-0.182,0.229-0.21,0.445c-0.49-0.006-0.956-0.014-0.992-0.022c-0.084-0.017-0.05-0.124-0.05-0.172
			c0-0.05,0.027-0.253-0.146-0.259c-0.171-0.008-2.688-0.031-2.759-0.023c-0.071,0.009-0.163,0.052-0.181,0.239
			c-0.017,0.19-0.002,0.182-0.17,0.182c0,0-0.848,0.007-1.003-0.067c-0.153-0.076-0.383-1.254-0.089-2.808
			c0.289-1.558,1.082-3.038,1.884-3.038c0,0,0.055,0.007,0.05,0.068c-0.002,0.062-0.054,1.427-0.039,1.449
			c0.01,0.025,0.031,0.1,0.575,0.094c0.546-0.004,1.203,0.07,1.292-0.016c0.091-0.086,0.101-0.125,0.101-0.375
			C178.022,36.075,178.332,36.76,179.339,36.448z"/>
		<path fill="#010101" d="M177.838,36.986l-1.729-0.015c-0.057-0.005-0.112,0.01-0.165,0.047c-0.105,0.08-0.129,0.232-0.05,0.34
			c0.057,0.076,0.15,0.107,0.234,0.094l1.737,0.014c0.01,0.003,0.02,0.003,0.029,0.002l0,0l0,0c0.047-0.002,0.092-0.018,0.131-0.047
			c0.109-0.08,0.131-0.232,0.052-0.34C178.021,37.004,177.927,36.969,177.838,36.986z"/>
		<circle fill="#010101" cx="180.138" cy="45.281" r="0.322"/>
		<circle fill="#010101" cx="180.158" cy="43.021" r="0.322"/>
		<path fill="#010101" d="M180.051,41.571c0.101-0.074,0.244-0.053,0.318,0.049c0.074,0.1,0.052,0.242-0.05,0.316
			c-0.098,0.076-0.242,0.053-0.315-0.047C179.93,41.789,179.949,41.645,180.051,41.571z"/>
		<path fill="#010101" d="M177.969,41.315l-1.763-0.561c-0.03-0.014-0.06-0.021-0.09-0.027l0,0l0,0
			c-0.092-0.016-0.183,0.004-0.262,0.062c-0.15,0.11-0.183,0.324-0.072,0.475c0.035,0.046,0.074,0.079,0.122,0.103l0,0l0,0
			c0.031,0.016,0.069,0.027,0.105,0.033l1.757,0.557c0.034,0.018,0.068,0.027,0.104,0.033l0,0l0,0
			c0.086,0.013,0.175-0.008,0.252-0.063c0.15-0.112,0.181-0.326,0.071-0.475C178.137,41.375,178.055,41.329,177.969,41.315z"/>
	</g>
</g>
<g>
	<path fill="#010101" d="M153.89,20.922c0,0-0.282,0.58-0.51,0.58h-1.316c-0.282,0-0.04-0.58-0.04-0.58l-0.224-1.502
		c0-0.147,0.118-0.265,0.264-0.265h1.316c0.144,0,0.262,0.118,0.262,0.265L153.89,20.922z"/>
	<circle fill="#010101" cx="155.342" cy="20.33" r="0.616"/>
	<path fill="#010101" d="M160.609,20.328c0,0.241-0.136,0.448-0.338,0.549v0.084c0,0.152-0.126,0.274-0.276,0.274
		c-0.074,0-0.144-0.029-0.195-0.079c-0.047-0.051-0.082-0.119-0.082-0.195v-0.085c-0.196-0.102-0.336-0.307-0.336-0.548
		c0-0.239,0.14-0.445,0.336-0.547v-0.083c0-0.152,0.126-0.275,0.277-0.275c0.076,0,0.145,0.031,0.194,0.081
		c0.05,0.051,0.08,0.119,0.082,0.195v0.082C160.474,19.882,160.609,20.089,160.609,20.328z"/>
	<path fill="#010101" d="M162.751,20.328c0,0.241-0.135,0.448-0.335,0.549v0.084c0,0.152-0.126,0.274-0.274,0.274
		c-0.077,0-0.146-0.029-0.195-0.079c-0.052-0.051-0.084-0.119-0.084-0.195v-0.084c-0.198-0.103-0.336-0.308-0.336-0.548
		s0.138-0.446,0.336-0.548v-0.083c0-0.152,0.126-0.275,0.279-0.275c0.074,0,0.143,0.031,0.192,0.081
		c0.049,0.051,0.082,0.119,0.082,0.195v0.082C162.616,19.882,162.751,20.089,162.751,20.328z"/>
	<path fill="#010101" d="M164.897,20.329c0,0.24-0.139,0.446-0.336,0.547v0.084c0,0.153-0.125,0.275-0.276,0.275
		c-0.079,0-0.146-0.029-0.194-0.082c-0.053-0.05-0.082-0.118-0.082-0.194v-0.083c-0.2-0.101-0.339-0.308-0.339-0.548
		s0.139-0.446,0.339-0.548v-0.085c0-0.151,0.124-0.274,0.276-0.274c0.074,0,0.142,0.031,0.192,0.081
		c0.05,0.049,0.084,0.117,0.084,0.195v0.083C164.759,19.883,164.897,20.089,164.897,20.329z"/>
	<path fill="#010101" d="M167.039,20.328c0,0.241-0.136,0.448-0.336,0.548v0.085c0,0.152-0.124,0.274-0.276,0.274
		c-0.077,0-0.144-0.029-0.195-0.082c-0.05-0.048-0.078-0.117-0.078-0.193v-0.085c-0.204-0.102-0.34-0.307-0.34-0.548
		c0-0.239,0.136-0.445,0.34-0.547v-0.083c0-0.152,0.122-0.275,0.273-0.275c0.074,0,0.146,0.031,0.192,0.081
		c0.052,0.051,0.084,0.119,0.084,0.195v0.082C166.903,19.882,167.039,20.089,167.039,20.328z"/>
	<path fill="#010101" d="M168.876,16.261h-18.915c-0.57,0-1.032,0.462-1.032,1.034v6.07c0,0.57,0.462,1.033,1.032,1.033h18.915
		c0.572,0,1.033-0.462,1.033-1.033v-6.07C169.909,16.723,169.448,16.261,168.876,16.261z"/>
	<path fill="#FFFFFF" d="M167.956,22.139c0,0.285-0.232,0.515-0.517,0.515h-16.018c-0.284,0-0.517-0.229-0.517-0.515v-3.618
		c0-0.286,0.232-0.516,0.517-0.516h16.018c0.284,0,0.517,0.23,0.517,0.516V22.139L167.956,22.139z"/>
	<path fill="#010101" d="M153.89,20.922c0,0-0.282,0.58-0.51,0.58h-1.316c-0.282,0-0.04-0.58-0.04-0.58l-0.224-1.502
		c0-0.147,0.118-0.265,0.264-0.265h1.316c0.144,0,0.262,0.118,0.262,0.265L153.89,20.922z"/>
	<circle fill="#010101" cx="155.342" cy="20.33" r="0.616"/>
	<path fill="#010101" d="M160.609,20.328c0,0.241-0.136,0.448-0.338,0.549v0.084c0,0.152-0.126,0.274-0.276,0.274
		c-0.074,0-0.144-0.029-0.195-0.079c-0.047-0.051-0.082-0.119-0.082-0.195v-0.085c-0.196-0.102-0.336-0.307-0.336-0.548
		c0-0.239,0.14-0.445,0.336-0.547v-0.083c0-0.152,0.126-0.275,0.277-0.275c0.076,0,0.145,0.031,0.194,0.081
		c0.05,0.051,0.08,0.119,0.082,0.195v0.082C160.474,19.882,160.609,20.089,160.609,20.328z"/>
	<path fill="#010101" d="M162.751,20.328c0,0.241-0.135,0.448-0.335,0.549v0.084c0,0.152-0.126,0.274-0.274,0.274
		c-0.077,0-0.146-0.029-0.195-0.079c-0.052-0.051-0.084-0.119-0.084-0.195v-0.084c-0.198-0.103-0.336-0.308-0.336-0.548
		s0.138-0.446,0.336-0.548v-0.083c0-0.152,0.126-0.275,0.279-0.275c0.074,0,0.143,0.031,0.192,0.081
		c0.049,0.051,0.082,0.119,0.082,0.195v0.082C162.616,19.882,162.751,20.089,162.751,20.328z"/>
	<path fill="#010101" d="M164.897,20.329c0,0.24-0.139,0.446-0.336,0.547v0.084c0,0.153-0.125,0.275-0.276,0.275
		c-0.079,0-0.146-0.029-0.194-0.082c-0.053-0.05-0.082-0.118-0.082-0.194v-0.083c-0.2-0.101-0.339-0.308-0.339-0.548
		s0.139-0.446,0.339-0.548v-0.085c0-0.151,0.124-0.274,0.276-0.274c0.074,0,0.142,0.031,0.192,0.081
		c0.05,0.049,0.084,0.117,0.084,0.195v0.083C164.759,19.883,164.897,20.089,164.897,20.329z"/>
	<path fill="#010101" d="M167.039,20.328c0,0.241-0.136,0.448-0.336,0.548v0.085c0,0.152-0.124,0.274-0.276,0.274
		c-0.077,0-0.144-0.029-0.195-0.082c-0.05-0.048-0.078-0.117-0.078-0.193v-0.085c-0.204-0.102-0.34-0.307-0.34-0.548
		c0-0.239,0.136-0.445,0.34-0.547v-0.083c0-0.152,0.122-0.275,0.273-0.275c0.074,0,0.146,0.031,0.192,0.081
		c0.052,0.051,0.084,0.119,0.084,0.195v0.082C166.903,19.882,167.039,20.089,167.039,20.328z"/>
	<path fill="#010101" d="M168.682,25.138h-18.522c-0.679,0-1.23,0.549-1.23,1.229v18.522c0,0.681,0.552,1.229,1.23,1.229h0.822
		v0.913c0,0.229,0.104,0.437,0.274,0.588c0.168,0.149,0.403,0.242,0.659,0.242c0.515,0,0.933-0.372,0.933-0.83v-0.913h13.25v0.913
		c0,0.229,0.107,0.437,0.271,0.588c0.171,0.149,0.402,0.242,0.66,0.242c0.514,0,0.931-0.372,0.931-0.83v-0.913h0.722
		c0.679,0,1.228-0.549,1.228-1.229V26.366C169.909,25.687,169.36,25.138,168.682,25.138z"/>
	<path fill="#FFFFFF" d="M167.978,43.626c0,0.276-0.222,0.499-0.496,0.499h-16c-0.276,0-0.5-0.223-0.5-0.499v-16
		c0-0.274,0.224-0.499,0.5-0.499h16c0.274,0,0.496,0.224,0.496,0.499V43.626L167.978,43.626z"/>
	<path fill="#010101" d="M167.188,43.136c0,0.143-0.116,0.259-0.26,0.259h-15.017c-0.144,0-0.26-0.116-0.26-0.259V28.12
		c0-0.143,0.116-0.258,0.26-0.258h15.017c0.144,0,0.26,0.115,0.26,0.258V43.136L167.188,43.136z"/>
	<path fill="#010101" d="M167.039,20.328c0,0.241-0.136,0.448-0.336,0.548v0.085c0,0.152-0.124,0.274-0.276,0.274
		c-0.077,0-0.144-0.029-0.195-0.082c-0.05-0.048-0.078-0.117-0.078-0.193v-0.085c-0.204-0.102-0.34-0.307-0.34-0.548
		c0-0.239,0.136-0.445,0.34-0.547v-0.083c0-0.152,0.122-0.275,0.273-0.275c0.074,0,0.146,0.031,0.192,0.081
		c0.052,0.051,0.084,0.119,0.084,0.195v0.082C166.903,19.882,167.039,20.089,167.039,20.328z"/>
	<path fill="#010101" d="M160.609,20.328c0,0.241-0.136,0.448-0.338,0.549v0.084c0,0.152-0.126,0.274-0.276,0.274
		c-0.074,0-0.144-0.029-0.195-0.079c-0.047-0.051-0.082-0.119-0.082-0.195v-0.085c-0.196-0.102-0.336-0.307-0.336-0.548
		c0-0.239,0.14-0.445,0.336-0.547v-0.083c0-0.152,0.126-0.275,0.277-0.275c0.076,0,0.145,0.031,0.194,0.081
		c0.05,0.051,0.08,0.119,0.082,0.195v0.082C160.474,19.882,160.609,20.089,160.609,20.328z"/>
	<path fill="#010101" d="M164.897,20.329c0,0.24-0.139,0.446-0.336,0.547v0.084c0,0.153-0.125,0.275-0.276,0.275
		c-0.079,0-0.146-0.029-0.194-0.082c-0.053-0.05-0.082-0.118-0.082-0.194v-0.083c-0.2-0.101-0.339-0.308-0.339-0.548
		s0.139-0.446,0.339-0.548v-0.085c0-0.151,0.124-0.274,0.276-0.274c0.074,0,0.142,0.031,0.192,0.081
		c0.05,0.049,0.084,0.117,0.084,0.195v0.083C164.759,19.883,164.897,20.089,164.897,20.329z"/>
	<path fill="#010101" d="M162.751,20.328c0,0.241-0.135,0.448-0.335,0.549v0.084c0,0.152-0.126,0.274-0.274,0.274
		c-0.077,0-0.146-0.029-0.195-0.079c-0.052-0.051-0.084-0.119-0.084-0.195v-0.084c-0.198-0.103-0.336-0.308-0.336-0.548
		s0.138-0.446,0.336-0.548v-0.083c0-0.152,0.126-0.275,0.279-0.275c0.074,0,0.143,0.031,0.192,0.081
		c0.049,0.051,0.082,0.119,0.082,0.195v0.082C162.616,19.882,162.751,20.089,162.751,20.328z"/>
	<circle fill="#010101" cx="155.342" cy="20.33" r="0.616"/>
	<path fill="#010101" d="M153.89,20.922c0,0-0.282,0.58-0.51,0.58h-1.316c-0.282,0-0.04-0.58-0.04-0.58l-0.224-1.502
		c0-0.147,0.118-0.265,0.264-0.265h1.316c0.144,0,0.262,0.118,0.262,0.265L153.89,20.922z"/>
</g>
</svg>
