<?xml version="1.0" encoding="utf-8"?>
<!-- Generator: Adobe Illustrator 16.0.0, SVG Export Plug-In . SVG Version: 6.00 Build 0)  -->
<!DOCTYPE svg PUBLIC "-//W3C//DTD SVG 1.1//EN" "http://www.w3.org/Graphics/SVG/1.1/DTD/svg11.dtd">
<svg version="1.1" id="Layer_1" xmlns="http://www.w3.org/2000/svg" xmlns:xlink="http://www.w3.org/1999/xlink" x="0px" y="0px"
	 width="20.812px" height="20.812px" viewBox="0 0 20.812 20.812" enable-background="new 0 0 20.812 20.812" xml:space="preserve">
<path d="M10.416,0.163c5.655,0.01,10.244,4.605,10.233,10.253c-0.01,5.658-4.604,10.242-10.254,10.233
	C4.74,20.641,0.153,16.045,0.163,10.397C0.172,4.742,4.769,0.153,10.416,0.163z M16.427,11.386c0.818-0.007,1.631-0.137,2.432,0.072
	c0.166,0.043,0.148-0.116,0.154-0.217c0.051-0.841,0.043-1.677-0.125-2.507C17.898,3.81,13.011,0.76,8.14,2.071
	c-4.056,1.093-6.72,4.911-6.346,9.176c0.016,0.185,0.062,0.273,0.27,0.223c0.922-0.229,1.855-0.172,2.785-0.073
	c0.3,0.032,0.305-0.092,0.264-0.312C4.934,10.12,5.114,9.208,5.655,8.41C5.955,7.968,6.03,7.58,5.892,7.073
	c-0.154-0.562-0.193-1.15-0.009-1.725c0.089-0.278,0.219-0.45,0.582-0.403c0.74,0.097,1.372,0.391,1.905,0.9
	c0.174,0.167,0.326,0.199,0.571,0.127c1.264-0.373,2.534-0.379,3.794,0.026c0.218,0.068,0.365,0.038,0.531-0.126
	c0.523-0.521,1.154-0.82,1.894-0.923c0.383-0.054,0.539,0.099,0.629,0.438c0.192,0.735,0.059,1.453-0.113,2.163
	c-0.057,0.235-0.027,0.393,0.111,0.588C16.462,9.101,16.716,10.158,16.427,11.386z M9.239,14.5
	c-0.089-0.019-0.127-0.025-0.165-0.033c-1.502-0.27-2.836-0.809-3.607-2.247c-0.048-0.091-0.104-0.159-0.21-0.163
	c-0.984-0.042-1.97-0.141-2.916,0.276c-0.275,0.121-0.315,0.245-0.229,0.515c0.848,2.662,2.554,4.533,5.132,5.598
	c0.753,0.312,0.764,0.285,0.763-0.528c0-0.351,0.136-0.812-0.036-1.021c-0.202-0.246-0.681-0.073-1.039-0.082
	c-0.829-0.018-1.451-0.33-1.818-1.11c-0.248-0.531-0.6-0.994-1.066-1.361c-0.083-0.066-0.252-0.125-0.177-0.266
	C3.93,13.956,4.081,14,4.203,14.016c0.555,0.068,0.921,0.41,1.242,0.83c0.327,0.428,0.708,0.801,1.288,0.82
	c0.856,0.031,1.692-0.013,2.206-0.871C8.999,14.696,9.109,14.627,9.239,14.5z M12.361,14.502c0.66,0.555,1.019,1.242,1.183,2.022
	c0.11,0.531,0.057,1.078,0.053,1.619c-0.002,0.23,0.049,0.293,0.273,0.188c2.586-1.209,4.241-3.187,4.959-5.952
	c0.053-0.201-0.013-0.245-0.191-0.294c-0.68-0.186-1.369-0.137-2.059-0.126c-0.23,0.004-0.365,0.087-0.47,0.298
	c-0.332,0.679-0.871,1.162-1.52,1.529C13.914,14.168,13.175,14.362,12.361,14.502z M11.21,18.04c0-0.256,0.006-0.513-0.002-0.769
	c-0.008-0.258-0.117-0.451-0.406-0.446c-0.287,0.002-0.395,0.188-0.395,0.452c-0.005,0.431,0.03,0.863-0.013,1.289
	c-0.043,0.423,0.103,0.517,0.5,0.476c0.269-0.029,0.342-0.107,0.318-0.357C11.197,18.471,11.21,18.254,11.21,18.04z M9.602,18.268
	c0-0.162-0.002-0.324,0-0.485c0.005-0.267-0.092-0.462-0.38-0.474c-0.289-0.014-0.409,0.183-0.42,0.439
	c-0.014,0.324-0.001,0.647-0.005,0.973c-0.001,0.129,0.049,0.185,0.18,0.217c0.615,0.156,0.625,0.152,0.625-0.467
	C9.603,18.403,9.603,18.334,9.602,18.268z M3.912,11.52c-0.624-0.046-1.235,0.024-1.846,0.151c-0.333,0.069-0.145,0.272-0.135,0.431
	c0.007,0.114,0.023,0.209,0.192,0.125c0.916-0.457,1.892-0.473,2.882-0.379c0.086,0.008,0.242,0.086,0.256-0.066
	c0.016-0.163-0.142-0.159-0.264-0.17C4.636,11.583,4.274,11.55,3.912,11.52z M12.021,18.208c-0.004,0-0.006,0-0.01,0
	c0,0.106-0.018,0.219,0.004,0.324c0.025,0.118-0.106,0.358,0.135,0.327c0.229-0.03,0.582,0.033,0.646-0.28
	c0.059-0.312,0.016-0.646-0.017-0.968c-0.022-0.217-0.188-0.319-0.407-0.305c-0.201,0.017-0.328,0.135-0.347,0.334
	C12.009,17.829,12.021,18.018,12.021,18.208z M16.371,11.765c0.18,0,0.358,0.018,0.537-0.003c0.584-0.062,1.157,0.007,1.729,0.114
	c0.094,0.018,0.248,0.171,0.289-0.048c0.039-0.212-0.158-0.177-0.275-0.202c-0.506-0.114-1.02-0.117-1.53-0.065
	C16.869,11.586,16.595,11.573,16.371,11.765z"/>
</svg>
