<?xml version="1.0" encoding="utf-8"?>
<!-- Generator: Adobe Illustrator 16.0.0, SVG Export Plug-In . SVG Version: 6.00 Build 0)  -->
<!DOCTYPE svg PUBLIC "-//W3C//DTD SVG 1.1//EN" "http://www.w3.org/Graphics/SVG/1.1/DTD/svg11.dtd">
<svg version="1.1" id="Layer_1" xmlns="http://www.w3.org/2000/svg" xmlns:xlink="http://www.w3.org/1999/xlink" x="0px" y="0px"
	 width="228.42px" height="228.42px" viewBox="0 0 228.42 228.42" enable-background="new 0 0 228.42 228.42" xml:space="preserve">
<g>
	<path fill-rule="evenodd" clip-rule="evenodd" fill="#0474B3" d="M125.366,97.73c7.452-11.44,16.835-18.38,28.978-21.179
		c13.711-3.16,27.296-2.313,40.126,3.469c15.235,6.868,21.378,20.314,24.252,35.83c1.652,8.919,1.775,17.915,1.809,26.922
		c0.093,24.245,0.038,48.492,0.249,72.735c0.033,3.719-0.7,5.092-4.751,4.993c-11.807-0.285-23.628-0.286-35.435,0
		c-4.075,0.099-4.79-1.322-4.774-5.028c0.106-25.021-0.037-50.044-0.049-75.066c-0.001-3.458-0.536-6.818-1.439-10.112
		c-2.812-10.271-8.894-15.518-18.526-16.137c-12.627-0.812-20.848,3.645-25.143,13.468c-2.938,6.716-3.425,13.786-3.436,20.966
		c-0.034,22.225-0.193,44.45-0.051,66.674c0.024,3.96-0.747,5.357-5.047,5.251c-11.647-0.29-23.31-0.116-34.962,0.091
		c-3.3,0.059-4.663-0.666-4.653-4.342c0.116-44.608,0.104-89.218,0.014-133.826c-0.006-3.159,0.758-4.358,4.115-4.306
		c11.499,0.179,23.005,0.208,34.503-0.014c3.654-0.07,4.482,1.25,4.288,4.593C125.165,87.289,125.366,91.896,125.366,97.73z"/>
	<path fill-rule="evenodd" clip-rule="evenodd" fill="#0274B2" d="M55.53,149.638c0,22.079-0.092,44.161,0.09,66.239
		c0.031,3.749-1.066,4.671-4.69,4.603c-11.969-0.224-23.946-0.176-35.917-0.021c-3.037,0.039-3.978-0.823-3.971-3.929
		c0.093-44.782,0.09-89.565,0.006-134.348c-0.006-3.093,1.009-3.979,4.015-3.944c12.127,0.138,24.258,0.166,36.384-0.015
		c3.316-0.049,4.167,1.032,4.149,4.241C55.471,104.854,55.53,127.245,55.53,149.638z"/>
	<path fill-rule="evenodd" clip-rule="evenodd" fill="#0374B3" d="M7.641,33.642C7.66,19.471,19.323,7.752,33.347,7.812
		c14.473,0.062,26.02,11.7,25.913,26.117c-0.107,14.468-11.234,25.577-25.735,25.696C18.979,59.744,7.622,48.342,7.641,33.642z"/>
</g>
</svg>
