<?xml version="1.0" encoding="utf-8"?>
<!-- Generator: Adobe Illustrator 16.0.0, SVG Export Plug-In . SVG Version: 6.00 Build 0)  -->
<!DOCTYPE svg PUBLIC "-//W3C//DTD SVG 1.1//EN" "http://www.w3.org/Graphics/SVG/1.1/DTD/svg11.dtd">
<svg version="1.1" id="Layer_1" xmlns="http://www.w3.org/2000/svg" xmlns:xlink="http://www.w3.org/1999/xlink" x="0px" y="0px"
	 width="56.932px" height="56.93px" viewBox="0 0 56.932 56.93" enable-background="new 0 0 56.932 56.93" xml:space="preserve">
<g display="none">
	<circle display="inline" fill="#65A7DB" cx="159.403" cy="27.707" r="28.465"/>
	<g display="inline">
		<path fill="#FFFFFF" d="M144.518,29.605v10.217h-2.011V15.236h8.463c2.576,0,4.572,0.656,5.984,1.968
			c1.414,1.312,2.12,3.049,2.12,5.209c0,2.186-0.706,3.932-2.12,5.235c-1.412,1.308-3.408,1.957-5.984,1.957H144.518z
			 M144.518,27.887h6.452c2.024,0,3.548-0.518,4.566-1.547c1.02-1.031,1.528-2.326,1.528-3.894c0-1.575-0.507-2.885-1.521-3.926
			c-1.013-1.041-2.538-1.562-4.574-1.562h-6.452L144.518,27.887L144.518,27.887z"/>
		<path fill="#FFFFFF" d="M174.29,35.172c0-0.855-0.353-1.603-1.056-2.242c-0.704-0.639-1.975-1.162-3.809-1.565
			c-2.185-0.474-3.798-1.099-4.838-1.875c-1.042-0.775-1.562-1.873-1.562-3.294c0-1.395,0.588-2.573,1.765-3.536
			c1.178-0.966,2.733-1.443,4.671-1.443c2.06,0,3.691,0.51,4.896,1.527c1.205,1.02,1.777,2.295,1.723,3.825l-0.033,0.101h-1.875
			c0-1-0.426-1.875-1.274-2.617c-0.852-0.742-1.996-1.113-3.437-1.113c-1.477,0-2.582,0.316-3.318,0.949
			c-0.737,0.633-1.106,1.375-1.106,2.228c0,0.838,0.318,1.534,0.954,2.081c0.637,0.55,1.906,1.031,3.81,1.445
			c2.173,0.486,3.8,1.15,4.88,1.992c1.08,0.84,1.621,1.984,1.621,3.43c0,1.523-0.615,2.758-1.85,3.703
			c-1.232,0.941-2.862,1.412-4.889,1.412c-2.219,0-3.96-0.527-5.228-1.586c-1.266-1.059-1.866-2.32-1.799-3.781l0.034-0.104h1.855
			c0.079,1.311,0.617,2.264,1.614,2.856c0.995,0.595,2.169,0.894,3.521,0.894c1.463,0,2.618-0.322,3.462-0.961
			C173.867,36.858,174.29,36.08,174.29,35.172z"/>
	</g>
</g>
<g display="none">
	<circle display="inline" fill="#FDB736" cx="224.304" cy="27.707" r="28.466"/>
	<g display="inline">
		<path fill="#FFFFFF" d="M226.199,33.17h-11.264l-2.533,6.854h-2.094l9.339-24.588h1.909l9.271,24.588h-2.096L226.199,33.17z
			 M215.612,31.363h9.929l-4.896-13.309h-0.104L215.612,31.363z"/>
		<rect x="234.289" y="15.389" fill="#FFFFFF" width="2.01" height="2.838"/>
		<rect x="234.289" y="21.752" fill="#FFFFFF" width="2.01" height="18.272"/>
	</g>
</g>
<g display="none">
	<circle display="inline" fill="#0871B9" cx="93.935" cy="-37.762" r="28.465"/>
	<path display="inline" fill="#FFFFFF" d="M93.856-19.587c-3.618-1.012-7.233-2.028-10.854-3.03
		c-1.663-0.461-1.642-0.447-1.771-2.143c-0.189-2.429-0.397-4.855-0.649-7.278c-0.053-0.524,0.09-0.602,0.549-0.595
		c1.665,0.021,3.332,0.026,4.997-0.005c0.493-0.01,0.594,0.172,0.619,0.618c0.069,1.203,0.199,2.403,0.298,3.604
		c0.035,0.414,0.144,0.676,0.637,0.796c1.964,0.478,3.912,1.021,5.866,1.542c0.136,0.143,0.296,0.137,0.469,0.092
		c2.021-0.553,4.043-1.104,6.066-1.647c0.29-0.078,0.437-0.19,0.468-0.523c0.212-2.254,0.442-4.508,0.681-6.76
		c0.055-0.51-0.271-0.457-0.592-0.459c-2.245-0.002-4.491-0.016-6.737-0.016c-4.419,0.003-8.839,0.011-13.259,0.016
		c-0.319-1.168-0.248-2.381-0.403-3.568c-0.103-0.789-0.11-1.588-0.163-2.382c6.982-0.01,13.964-0.025,20.946-0.018
		c0.551,0,0.792-0.083,0.836-0.722c0.105-1.585,0.306-3.165,0.503-4.743c0.059-0.463-0.015-0.643-0.533-0.637
		c-2.656,0.027-5.313,0.02-7.971,0.023c-4.518-0.009-9.035-0.027-13.553-0.003c-0.64,0.003-0.805-0.177-0.835-0.799
		c-0.074-1.442-0.227-2.887-0.391-4.323c-0.069-0.598,0.009-0.833,0.716-0.828c4.686,0.028,9.372,0.004,14.06-0.003
		c0.12,0.003,0.241,0.011,0.36,0.011c4.641,0,9.281,0.009,13.92-0.012c0.555-0.004,0.734,0.147,0.661,0.695
		c-0.114,0.835-0.194,1.678-0.269,2.518c-0.341,3.938-0.666,7.881-1.01,11.817c-0.433,4.927-0.884,9.851-1.305,14.775
		c-0.035,0.421-0.137,0.615-0.576,0.734C101.704-21.771,97.781-20.675,93.856-19.587z"/>
</g>
<g display="none">
	<circle display="inline" fill="#C52126" cx="28.465" cy="-37.762" r="28.465"/>
	<polygon display="inline" fill="#FFFFFF" points="36.765,-35.332 36.074,-27.596 29.426,-25.8 29.411,-25.795 22.767,-27.588 
		22.342,-32.351 16.35,-32.351 17.186,-22.979 29.411,-19.587 29.418,-19.587 29.426,-19.587 29.438,-19.591 41.65,-22.979 
		43.289,-41.299 21.541,-41.299 20.997,-47.41 43.81,-47.41 43.831,-47.41 44.365,-53.377 14.474,-53.377 16.083,-35.332 	"/>
</g>
<g display="none">
	<circle display="inline" fill="#63A944" cx="159.403" cy="-37.762" r="28.465"/>
	<path display="inline" fill="#FFFFFE" d="M160.236-19.587c-2.188-0.618-4.372-1.245-6.562-1.854
		c-1.637-0.456-3.275-0.906-4.923-1.328c-0.548-0.14-0.783-0.345-0.818-0.985c-0.154-2.687-0.391-5.365-0.632-8.042
		c-0.036-0.424,0.034-0.553,0.463-0.549c1.636,0.02,3.271,0.019,4.905,0c0.358-0.003,0.51,0.097,0.537,0.474
		c0.103,1.268,0.234,2.532,0.359,3.799c0.021,0.205-0.023,0.451,0.271,0.52c2.145,0.503,4.234,1.203,6.398,1.625
		c2.144-0.401,4.206-1.116,6.323-1.625c0.264-0.062,0.299-0.245,0.32-0.484c0.276-2.915,0.572-5.829,0.851-8.746
		c0.312-3.25,0.592-6.505,0.925-9.753c0.104-1.035,0.169-0.902-0.84-0.904c-7.336-0.01-14.673-0.018-22.009-0.024
		c-0.136-1.72-0.249-3.441-0.416-5.158c-0.057-0.562,0.065-0.731,0.658-0.729c4.442,0.027,8.885,0.018,13.324,0.015
		c0.288,0,0.574-0.023,0.862-0.035c0.264,0.009,0.525,0.024,0.791,0.024c4.472,0.002,8.943,0.017,13.416-0.014
		c0.626-0.004,0.768,0.156,0.684,0.758c-0.144,1.045-0.207,2.102-0.301,3.152c-0.353,4.02-0.695,8.037-1.058,12.055
		c-0.408,4.519-0.854,9.033-1.229,13.553c-0.057,0.66-0.229,0.931-0.882,1.104C167.842-21.722,164.042-20.646,160.236-19.587z"/>
</g>
<g display="none">
	<circle display="inline" fill="#E15554" cx="224.304" cy="-37.762" r="28.466"/>
	<g display="inline">
		<g>
			<path fill="#FFFFFF" d="M207.278-54.658c2.509,2.364,5.041,4.75,7.574,7.137c7.624,7.188,15.247,14.37,22.868,21.559
				c0.28,0.265,0.614,0.489,0.704,0.908c0.148,0.686-0.09,1.226-0.666,1.576c-0.674,0.412-1.291,0.209-1.803-0.33
				c-1.346-1.412-2.678-2.836-4.012-4.259c-8.225-8.751-16.446-17.503-24.67-26.253C207.192-54.406,207.107-54.468,207.278-54.658z"
				/>
			<path fill="#FFFFFF" d="M216.952-51.476c0.438-0.115,0.552,0.177,0.717,0.326c7.534,6.954,15.059,13.915,22.589,20.87
				c0.38,0.352,0.72,0.698,0.668,1.271c-0.057,0.616-0.366,1.056-0.936,1.269c-0.621,0.233-1.15,0.005-1.58-0.458
				c-1.328-1.427-2.645-2.865-3.967-4.297c-5.689-6.164-11.375-12.326-17.062-18.488C217.251-51.125,217.129-51.273,216.952-51.476z
				"/>
			<path fill="#FFFFFF" d="M209.978-44.98c2.771,2.556,5.487,5.06,8.201,7.568c4.947,4.574,9.896,9.149,14.843,13.728
				c1.016,0.94,1.164,1.688,0.479,2.395c-0.666,0.688-1.516,0.533-2.42-0.447c-6.305-6.836-12.608-13.675-18.914-20.514
				c-0.602-0.65-1.202-1.304-1.806-1.955C210.182-44.404,209.962-44.585,209.978-44.98z"/>
			<path fill="#FFFFFF" d="M225.377-48.854c0.414-0.019,0.549,0.271,0.736,0.444c4.936,4.55,9.863,9.106,14.789,13.661
				c0.602,0.556,0.686,1.12,0.254,1.581c-0.426,0.444-1.008,0.42-1.529-0.144c-4.742-5.133-9.477-10.271-14.211-15.414
				C225.398-48.742,225.4-48.775,225.377-48.854z"/>
			<path fill="#FFFFFF" d="M212.66-36.428c0.411-0.135,0.577,0.194,0.783,0.386c4.772,4.4,9.543,8.81,14.309,13.219
				c0.642,0.59,0.718,1.078,0.269,1.572c-0.437,0.479-1.023,0.436-1.58-0.166c-4.563-4.935-9.116-9.869-13.671-14.806
				C212.722-36.274,212.699-36.35,212.66-36.428z"/>
			<path fill="#FFFFFF" d="M233.852-45.314c1.979,1.822,3.959,3.642,5.94,5.459c0.224,0.204,0.398,0.426,0.15,0.707
				c-0.221,0.256-0.508,0.243-0.728,0.004c-1.825-1.997-3.645-4.004-5.463-6.012C233.748-45.161,233.779-45.199,233.852-45.314z"/>
			<path fill="#FFFFFF" d="M216.815-28.123c0.232-0.015,0.426,0.055,0.604,0.22c1.595,1.472,3.192,2.938,4.792,4.403
				c0.246,0.228,0.437,0.474,0.124,0.771c-0.255,0.244-0.517,0.152-0.728-0.08c-1.594-1.771-3.302-3.439-4.788-5.309L216.815-28.123
				z"/>
		</g>
	</g>
</g>
<path fill="#00D8FF" d="M56.931,28.467c0,15.719-12.744,28.463-28.466,28.463S0,44.186,0,28.467C0,12.744,12.744,0,28.466,0
	S56.931,12.744,56.931,28.467z"/>
<g id="Layer_1_1_">
	<g>
		<path fill="#FFFFFE" d="M32.052,28.431c0,1.981-1.605,3.586-3.586,3.586s-3.586-1.605-3.586-3.586c0-1.98,1.606-3.586,3.586-3.586
			S32.052,26.451,32.052,28.431z"/>
	</g>
	<g>
		<g opacity="0">
			<path fill="#FFFFFE" d="M28.466,21.14c4.814,0,9.287,0.691,12.66,1.852c4.063,1.399,6.562,3.519,6.562,5.439
				c0,2-2.648,4.252-7.012,5.7c-3.299,1.094-7.641,1.664-12.211,1.664c-4.686,0-9.124-0.537-12.459-1.676
				c-4.221-1.443-6.763-3.727-6.763-5.688c0-1.904,2.386-4.009,6.392-5.405C19.02,21.846,23.604,21.14,28.466,21.14z"/>
		</g>
		<g>
			<path fill="#FFFFFE" d="M28.466,36.653c-5.037,0-9.441-0.596-12.736-1.723c-2.14-0.73-3.954-1.703-5.245-2.809
				c-1.373-1.176-2.099-2.451-2.099-3.69c0-2.371,2.604-4.694,6.967-6.215c3.578-1.247,8.234-1.934,13.113-1.934
				c4.787,0,9.383,0.674,12.939,1.898c2.08,0.716,3.834,1.642,5.074,2.677c1.352,1.127,2.066,2.362,2.066,3.573
				c0,2.463-2.912,4.959-7.6,6.512C37.624,36.045,33.191,36.653,28.466,36.653z M28.466,21.998c-4.624,0-9.197,0.67-12.548,1.838
				c-2.895,1.01-5.816,2.822-5.816,4.596c0,0.711,0.532,1.559,1.499,2.387c1.128,0.967,2.748,1.826,4.684,2.488
				c3.119,1.066,7.331,1.629,12.181,1.629c4.547,0,8.787-0.574,11.941-1.619c4.412-1.463,6.423-3.557,6.423-4.885
				c0-0.676-0.515-1.478-1.449-2.257c-1.082-0.902-2.649-1.723-4.534-2.371C37.466,22.638,33.068,21.998,28.466,21.998z"/>
		</g>
	</g>
	<g>
		<g opacity="0">
			<path fill="#FFFFFE" d="M22.118,24.807c2.405-4.171,5.238-7.701,7.929-10.042c3.241-2.822,6.326-3.926,7.99-2.967
				c1.732,1,2.361,4.419,1.434,8.921c-0.701,3.404-2.375,7.449-4.658,11.409c-2.342,4.059-5.021,7.637-7.676,9.957
				c-3.358,2.936-6.605,3.998-8.305,3.018c-1.65-0.953-2.281-4.07-1.49-8.238C18.011,33.342,19.69,29.018,22.118,24.807z"/>
		</g>
		<g>
			<path fill="#FFFFFE" d="M20.321,46.313c-0.731,0-1.377-0.156-1.917-0.469c-2.054-1.186-2.766-4.602-1.904-9.141
				c0.707-3.723,2.438-8.099,4.876-12.326c2.391-4.146,5.271-7.791,8.108-10.26c2.606-2.268,5.145-3.516,7.148-3.516
				c0.695,0,1.312,0.152,1.834,0.454c2.136,1.231,2.843,5,1.847,9.837c-0.706,3.428-2.396,7.57-4.757,11.665
				c-2.516,4.363-5.232,7.881-7.854,10.172C25.095,45.008,22.405,46.313,20.321,46.313z M36.632,12.317
				c-1.543,0-3.795,1.157-6.021,3.095c-2.698,2.348-5.45,5.836-7.749,9.823c-2.31,4.005-4.014,8.302-4.677,11.789
				c-0.572,3.012-0.461,6.447,1.075,7.334c0.277,0.16,0.634,0.24,1.061,0.24c1.65,0,3.987-1.182,6.252-3.16
				c2.482-2.17,5.075-5.537,7.497-9.738c2.271-3.94,3.893-7.901,4.562-11.154c0.429-2.081,0.523-3.969,0.274-5.459
				c-0.214-1.282-0.675-2.187-1.298-2.545C37.35,12.392,37.022,12.317,36.632,12.317z"/>
		</g>
	</g>
	<g>
		<g opacity="0">
			<path fill="#FFFFFE" d="M22.124,32.137c-2.412-4.166-4.056-8.383-4.74-11.883c-0.825-4.217-0.242-7.442,1.42-8.404
				c1.732-1.003,5.008,0.16,8.445,3.212c2.599,2.308,5.267,5.779,7.557,9.735c2.349,4.056,4.108,8.165,4.792,11.622
				c0.867,4.375,0.165,7.719-1.533,8.703c-1.648,0.953-4.664-0.057-7.881-2.824C27.468,39.959,24.56,36.346,22.124,32.137z"/>
		</g>
		<g>
			<path fill="#FFFFFE" d="M36.617,46.328c-1.975,0-4.458-1.201-6.991-3.381c-2.872-2.471-5.799-6.158-8.244-10.379
				c-2.399-4.144-4.118-8.459-4.84-12.15c-0.422-2.158-0.5-4.141-0.226-5.733c0.298-1.734,1.01-2.972,2.058-3.578
				c0.535-0.31,1.17-0.467,1.889-0.467c2.096,0,4.85,1.378,7.556,3.78c2.617,2.324,5.362,5.856,7.73,9.946
				c2.523,4.359,4.215,8.47,4.891,11.886c0.439,2.217,0.507,4.273,0.197,5.945c-0.33,1.777-1.07,3.045-2.143,3.666
				C37.961,46.172,37.329,46.328,36.617,46.328z M20.263,12.356c-0.413,0-0.758,0.079-1.029,0.236
				c-0.585,0.338-1.021,1.185-1.227,2.384c-0.239,1.389-0.164,3.157,0.219,5.112c0.687,3.51,2.334,7.636,4.641,11.619
				c2.316,4.002,5.188,7.625,7.877,9.939c3.112,2.678,5.144,2.967,5.873,2.967c0.406,0,0.749-0.078,1.019-0.236
				c1.151-0.666,1.993-3.389,1.121-7.793c-0.64-3.232-2.262-7.16-4.692-11.359c-2.278-3.935-4.901-7.316-7.385-9.522
				C24.319,13.607,21.92,12.356,20.263,12.356z"/>
		</g>
	</g>
</g>
</svg>
