<?xml version="1.0" encoding="utf-8"?>
<!-- Generator: Adobe Illustrator 16.0.0, SVG Export Plug-In . SVG Version: 6.00 Build 0)  -->
<!DOCTYPE svg PUBLIC "-//W3C//DTD SVG 1.1//EN" "http://www.w3.org/Graphics/SVG/1.1/DTD/svg11.dtd">
<svg version="1.1" id="Layer_1" xmlns="http://www.w3.org/2000/svg" xmlns:xlink="http://www.w3.org/1999/xlink" x="0px" y="0px"
	 width="56.931px" height="56.93px" viewBox="0 0 56.931 56.93" enable-background="new 0 0 56.931 56.93" xml:space="preserve">
<g display="none">
	<circle display="inline" fill="#65A7DB" cx="17.465" cy="186.707" r="28.465"/>
	<g display="inline">
		<path fill="#FFFFFF" d="M2.58,188.605v10.217H0.57v-24.586h8.462c2.577,0,4.573,0.656,5.985,1.967
			c1.414,1.312,2.12,3.049,2.12,5.209c0,2.186-0.706,3.932-2.12,5.236c-1.412,1.307-3.408,1.957-5.985,1.957H2.58z M2.58,186.887
			h6.452c2.025,0,3.548-0.518,4.567-1.547c1.019-1.031,1.528-2.326,1.528-3.893c0-1.576-0.507-2.885-1.521-3.926
			c-1.013-1.041-2.538-1.562-4.575-1.562H2.58V186.887z"/>
		<path fill="#FFFFFF" d="M32.353,194.172c0-0.855-0.353-1.602-1.056-2.242c-0.704-0.639-1.974-1.162-3.808-1.566
			c-2.185-0.473-3.798-1.098-4.838-1.875c-1.042-0.775-1.563-1.873-1.563-3.293c0-1.395,0.588-2.574,1.765-3.537
			c1.178-0.965,2.733-1.443,4.671-1.443c2.059,0,3.691,0.51,4.896,1.527c1.205,1.02,1.778,2.295,1.723,3.826l-0.033,0.1h-1.875
			c0-1-0.426-1.875-1.275-2.617c-0.851-0.742-1.996-1.113-3.436-1.113c-1.477,0-2.582,0.316-3.319,0.949s-1.106,1.375-1.106,2.227
			c0,0.838,0.318,1.535,0.954,2.082c0.637,0.549,1.906,1.031,3.81,1.445c2.172,0.486,3.799,1.15,4.879,1.992
			c1.081,0.84,1.622,1.984,1.622,3.43c0,1.523-0.616,2.758-1.85,3.703c-1.232,0.941-2.862,1.412-4.889,1.412
			c-2.218,0-3.96-0.527-5.227-1.586c-1.266-1.059-1.866-2.32-1.799-3.781l0.034-0.104h1.856c0.079,1.311,0.617,2.264,1.614,2.857
			c0.995,0.594,2.169,0.893,3.521,0.893c1.463,0,2.618-0.322,3.462-0.961S32.353,195.08,32.353,194.172z"/>
	</g>
</g>
<g display="none">
	<circle display="inline" fill="#FDB736" cx="17.465" cy="186.707" r="28.466"/>
	<g display="inline">
		<path fill="#FFFFFF" d="M19.361,192.17H8.097l-2.533,6.855H3.47l9.339-24.588h1.909l9.271,24.588h-2.096L19.361,192.17z
			 M8.774,190.363h9.929l-4.896-13.309h-0.103L8.774,190.363z"/>
		<rect x="27.451" y="174.389" fill="#FFFFFF" width="2.01" height="2.838"/>
		<rect x="27.451" y="180.752" fill="#FFFFFF" width="2.01" height="18.273"/>
	</g>
</g>
<g display="none">
	<circle display="inline" fill="#0871B9" cx="17.465" cy="187.465" r="28.465"/>
	<path display="inline" fill-rule="evenodd" clip-rule="evenodd" fill="#FFFFFF" d="M17.387,205.64
		c-3.618-1.011-7.233-2.028-10.854-3.03c-1.663-0.461-1.642-0.447-1.772-2.143c-0.189-2.428-0.397-4.855-0.649-7.278
		c-0.053-0.524,0.09-0.601,0.549-0.595c1.665,0.021,3.332,0.027,4.997-0.004c0.493-0.01,0.593,0.171,0.619,0.618
		c0.069,1.203,0.199,2.403,0.298,3.604c0.035,0.414,0.143,0.676,0.636,0.796c1.964,0.478,3.913,1.022,5.867,1.542
		c0.135,0.143,0.296,0.137,0.468,0.092c2.021-0.553,4.043-1.105,6.067-1.648c0.29-0.078,0.436-0.19,0.468-0.523
		c0.211-2.254,0.442-4.508,0.68-6.76c0.055-0.51-0.271-0.457-0.592-0.459c-2.245-0.002-4.491-0.015-6.737-0.015
		c-4.419,0.003-8.839,0.01-13.259,0.015c-0.319-1.168-0.248-2.381-0.403-3.568c-0.103-0.789-0.11-1.588-0.163-2.382
		c6.982-0.01,13.964-0.025,20.946-0.018c0.551,0,0.792-0.083,0.836-0.721c0.106-1.585,0.306-3.165,0.503-4.743
		c0.059-0.463-0.015-0.643-0.533-0.637c-2.656,0.027-5.314,0.019-7.971,0.023c-4.517-0.008-9.035-0.027-13.553-0.003
		c-0.639,0.003-0.804-0.176-0.835-0.798c-0.074-1.443-0.226-2.887-0.39-4.324c-0.069-0.597,0.009-0.833,0.716-0.828
		c4.685,0.029,9.372,0.004,14.059-0.003c0.12,0.003,0.241,0.011,0.361,0.011c4.64,0,9.281,0.009,13.92-0.012
		c0.554-0.004,0.734,0.148,0.661,0.696c-0.115,0.835-0.195,1.677-0.269,2.517c-0.341,3.939-0.666,7.881-1.01,11.818
		c-0.432,4.926-0.883,9.85-1.304,14.775c-0.036,0.421-0.137,0.615-0.577,0.734C25.234,203.456,21.312,204.552,17.387,205.64z"/>
</g>
<g display="none">
	<circle display="inline" fill="#C52126" cx="17.465" cy="187.465" r="28.465"/>
	<polygon display="inline" fill="#FFFFFF" points="25.765,189.895 25.074,197.631 18.426,199.427 18.411,199.432 11.767,197.639 
		11.342,192.876 5.35,192.876 6.186,202.248 18.411,205.64 18.418,205.64 18.426,205.64 18.438,205.636 30.65,202.248 
		32.289,183.928 10.541,183.928 9.997,177.816 32.81,177.816 32.831,177.816 33.365,171.85 3.474,171.85 5.083,189.895 
		25.765,189.895 	"/>
</g>
<g display="none">
	<circle display="inline" fill="#63A944" cx="17.465" cy="187.465" r="28.465"/>
	<path display="inline" fill-rule="evenodd" clip-rule="evenodd" fill="#FFFFFE" d="M18.299,205.64
		c-2.188-0.618-4.372-1.245-6.562-1.854c-1.637-0.456-3.276-0.906-4.923-1.328c-0.548-0.14-0.783-0.345-0.819-0.986
		c-0.154-2.686-0.39-5.365-0.631-8.042c-0.037-0.423,0.034-0.552,0.462-0.548c1.636,0.019,3.271,0.018,4.906,0
		c0.358-0.003,0.509,0.096,0.537,0.473c0.102,1.268,0.234,2.532,0.359,3.799c0.021,0.205-0.023,0.451,0.271,0.52
		c2.144,0.502,4.234,1.203,6.398,1.625c2.144-0.402,4.206-1.117,6.323-1.625c0.264-0.062,0.299-0.246,0.321-0.485
		c0.276-2.915,0.572-5.829,0.85-8.746c0.312-3.25,0.592-6.505,0.925-9.753c0.105-1.035,0.169-0.902-0.84-0.904
		c-7.336-0.01-14.673-0.018-22.009-0.025c-0.135-1.719-0.249-3.441-0.416-5.158c-0.056-0.561,0.066-0.731,0.659-0.729
		c4.442,0.027,8.884,0.017,13.324,0.014c0.288,0,0.574-0.023,0.862-0.035c0.264,0.009,0.526,0.025,0.791,0.025
		c4.472,0.002,8.944,0.016,13.416-0.014c0.626-0.004,0.768,0.156,0.684,0.758c-0.144,1.045-0.207,2.101-0.301,3.152
		c-0.353,4.02-0.695,8.037-1.058,12.055c-0.408,4.518-0.854,9.033-1.229,13.553c-0.057,0.66-0.229,0.93-0.882,1.104
		C25.904,203.505,22.104,204.581,18.299,205.64z"/>
</g>
<g display="none">
	<circle display="inline" fill="#E15554" cx="17.465" cy="187.465" r="28.466"/>
	<g display="inline">
		<g>
			<path fill-rule="evenodd" clip-rule="evenodd" fill="#FFFFFF" d="M0.44,170.568c2.509,2.364,5.041,4.75,7.574,7.137
				c7.624,7.187,15.247,14.37,22.868,21.558c0.281,0.265,0.615,0.49,0.705,0.909c0.148,0.685-0.09,1.225-0.666,1.576
				c-0.674,0.412-1.291,0.209-1.803-0.33c-1.346-1.412-2.678-2.836-4.012-4.259c-8.225-8.751-16.446-17.503-24.67-26.253
				C0.354,170.82,0.269,170.759,0.44,170.568z"/>
			<path fill-rule="evenodd" clip-rule="evenodd" fill="#FFFFFF" d="M10.114,173.751c0.438-0.116,0.552,0.176,0.717,0.326
				c7.534,6.954,15.058,13.915,22.589,20.87c0.379,0.352,0.719,0.698,0.668,1.271c-0.057,0.617-0.367,1.056-0.936,1.269
				c-0.621,0.233-1.15,0.005-1.58-0.458c-1.328-1.427-2.645-2.865-3.967-4.297c-5.689-6.164-11.375-12.326-17.061-18.488
				C10.413,174.102,10.291,173.953,10.114,173.751z"/>
			<path fill-rule="evenodd" clip-rule="evenodd" fill="#FFFFFF" d="M3.139,180.246c2.771,2.555,5.488,5.059,8.201,7.568
				c4.948,4.574,9.896,9.15,14.843,13.728c1.016,0.94,1.164,1.687,0.48,2.394c-0.666,0.689-1.516,0.533-2.42-0.447
				c-6.305-6.836-12.609-13.675-18.914-20.514c-0.602-0.65-1.202-1.303-1.806-1.955C3.343,180.822,3.124,180.642,3.139,180.246z"/>
			<path fill-rule="evenodd" clip-rule="evenodd" fill="#FFFFFF" d="M18.539,176.372c0.414-0.019,0.549,0.271,0.736,0.444
				c4.936,4.55,9.863,9.107,14.789,13.661c0.602,0.556,0.686,1.12,0.254,1.581c-0.426,0.445-1.008,0.42-1.529-0.143
				c-4.742-5.133-9.477-10.272-14.211-15.414C18.56,176.484,18.562,176.451,18.539,176.372z"/>
			<path fill-rule="evenodd" clip-rule="evenodd" fill="#FFFFFF" d="M5.822,188.799c0.411-0.135,0.577,0.194,0.783,0.385
				c4.773,4.401,9.543,8.81,14.309,13.219c0.641,0.59,0.717,1.078,0.268,1.572c-0.436,0.48-1.023,0.436-1.58-0.166
				c-4.563-4.934-9.116-9.869-13.671-14.805C5.883,188.952,5.861,188.877,5.822,188.799z"/>
			<path fill-rule="evenodd" clip-rule="evenodd" fill="#FFFFFF" d="M27.013,179.912c1.98,1.822,3.959,3.641,5.941,5.459
				c0.223,0.204,0.398,0.426,0.15,0.707c-0.221,0.256-0.508,0.243-0.727,0.004c-1.826-1.997-3.645-4.004-5.463-6.012
				C26.91,180.065,26.941,180.027,27.013,179.912z"/>
			<path fill-rule="evenodd" clip-rule="evenodd" fill="#FFFFFF" d="M9.977,197.104c0.233-0.014,0.426,0.055,0.604,0.22
				c1.594,1.472,3.192,2.938,4.792,4.403c0.246,0.228,0.436,0.474,0.124,0.771c-0.255,0.244-0.517,0.152-0.728-0.08
				c-1.594-1.771-3.302-3.44-4.788-5.309L9.977,197.104z"/>
		</g>
	</g>
</g>
<path fill="#CE679A" d="M56.931,28.467c0,15.719-12.744,28.463-28.465,28.463C12.744,56.93,0,44.186,0,28.467
	C0,12.744,12.744,0,28.466,0C44.187,0,56.931,12.744,56.931,28.467z"/>
<path fill-rule="evenodd" clip-rule="evenodd" fill="#CE679A" d="M-1.908,92.346c0.064,18.415-11.757,34.682-28.074,39.832
	c-3.872,1.222-8.011,2.254-11.36-0.837c-3.587-3.31-2.466-7.614-1.349-11.695c1.854-6.772,5.725-12.351,10.567-17.271
	c7.424-7.546,16.169-13.27,25.429-18.312c2.875-1.565,3.825-0.761,4.098,2.124C-2.362,88.666-2.045,91.141-1.908,92.346z"/>
<path fill-rule="evenodd" clip-rule="evenodd" fill="#FDFAFC" d="M22.003,35.831c-1.589-1.124-3.077-2.165-4.552-3.222
	c-1.349-0.967-2.638-2.004-3.74-3.256c-2.619-2.977-2.821-5.521-0.68-8.875c1.838-2.879,4.382-5.023,7.251-6.797
	C24.014,11.374,27.948,9.5,32.3,8.714c2.738-0.494,5.494-0.521,8.189,0.372c4.413,1.461,6.009,5.155,4.037,9.402
	c-1.882,4.053-5.118,6.47-9.35,7.668c-2.039,0.578-4.113,0.802-6.228,0.67c-1.657-0.104-3.126-0.646-4.307-1.854
	c-0.353-0.361-0.616-0.777-0.739-1.273c-0.043-0.172-0.032-0.334,0.118-0.447c0.127-0.096,0.279-0.068,0.381,0.029
	c2.646,2.539,5.709,1.879,8.728,1.049c3.142-0.864,5.807-2.545,7.775-5.196c0.868-1.169,1.492-2.453,1.452-3.968
	c-0.028-1.045-0.475-1.853-1.36-2.415c-1.005-0.637-2.128-0.913-3.291-1.012c-3.152-0.27-6.16,0.392-9.051,1.578
	c-3.803,1.56-7.376,3.515-10.348,6.423c-0.734,0.718-1.357,1.525-1.854,2.427c-1.296,2.354-1.066,4.634,0.685,6.672
	c1.034,1.202,2.304,2.14,3.547,3.104c1.004,0.779,2.037,1.528,2.914,2.449c0.38,0.399,0.725,0.441,1.238,0.33
	c2.211-0.477,4.439-0.646,6.617,0.138c2.188,0.788,3.74,2.215,4.207,4.595c0.327,1.666-0.563,3.342-2.099,4.011
	c-0.254,0.11-0.597,0.274-0.764,0.026c-0.222-0.331,0.187-0.445,0.388-0.598c1.599-1.215,1.816-2.783,0.598-4.387
	c-1.083-1.425-2.652-1.924-4.309-2.215c-1.12-0.195-2.253-0.182-3.383-0.017c-0.601,0.089-0.879,0.229-0.68,0.991
	c1.192,4.556-1.043,8.973-5.393,10.738c-1.5,0.609-3.077,0.729-4.633,0.291c-1.341-0.377-1.861-1.51-2.038-2.765
	c-0.264-1.872,0.373-3.485,1.654-4.844c1.846-1.956,4.126-3.304,6.464-4.567C21.585,36.056,21.705,35.991,22.003,35.831z
	 M23.394,39.025c-0.022-0.199-0.075-0.609-0.114-1.021c-0.045-0.478-0.203-0.611-0.679-0.353c-1.535,0.836-2.984,1.785-4.215,3.035
	c-0.802,0.816-1.444,1.74-1.751,2.863c-0.185,0.677-0.371,1.391,0.224,1.938c0.555,0.513,1.241,0.341,1.883,0.14
	C21.445,44.774,23.404,42.078,23.394,39.025z"/>
</svg>
