<?xml version="1.0" encoding="utf-8"?>
<!-- Generator: Adobe Illustrator 16.0.0, SVG Export Plug-In . SVG Version: 6.00 Build 0)  -->
<!DOCTYPE svg PUBLIC "-//W3C//DTD SVG 1.1//EN" "http://www.w3.org/Graphics/SVG/1.1/DTD/svg11.dtd">
<svg version="1.1" id="Layer_1" xmlns="http://www.w3.org/2000/svg" xmlns:xlink="http://www.w3.org/1999/xlink" x="0px" y="0px"
	 width="56.932px" height="56.93px" viewBox="0 0 56.932 56.93" enable-background="new 0 0 56.932 56.93" xml:space="preserve">
<path fill="#CE679A" d="M56.931,28.467c0,15.719-12.744,28.463-28.466,28.463S0,44.186,0,28.467C0,12.744,12.744,0,28.466,0
	S56.931,12.744,56.931,28.467z"/>
<path fill="#FDFAFC" d="M22.003,35.831c-1.589-1.124-3.077-2.165-4.552-3.223c-1.349-0.967-2.638-2.004-3.74-3.256
	c-2.619-2.977-2.82-5.521-0.68-8.875c1.838-2.879,4.382-5.022,7.251-6.797C24.014,11.374,27.948,9.5,32.3,8.714
	c2.738-0.494,5.494-0.521,8.189,0.372c4.413,1.461,6.009,5.155,4.037,9.401c-1.882,4.054-5.118,6.471-9.351,7.669
	c-2.038,0.577-4.112,0.802-6.228,0.67c-1.657-0.104-3.126-0.646-4.307-1.854c-0.354-0.361-0.616-0.777-0.739-1.272
	c-0.043-0.173-0.032-0.334,0.118-0.447c0.127-0.096,0.278-0.068,0.381,0.029c2.646,2.538,5.709,1.879,8.728,1.049
	c3.143-0.864,5.808-2.545,7.775-5.196c0.868-1.169,1.492-2.453,1.452-3.968c-0.028-1.045-0.476-1.854-1.36-2.415
	c-1.005-0.637-2.128-0.913-3.291-1.012c-3.151-0.271-6.16,0.392-9.051,1.577c-3.803,1.561-7.376,3.516-10.348,6.424
	c-0.734,0.718-1.357,1.524-1.854,2.427c-1.296,2.354-1.065,4.634,0.686,6.672c1.033,1.202,2.304,2.14,3.547,3.104
	c1.004,0.779,2.037,1.528,2.914,2.449c0.38,0.399,0.725,0.441,1.237,0.33c2.211-0.477,4.439-0.646,6.617,0.138
	c2.188,0.788,3.74,2.216,4.207,4.596c0.327,1.666-0.562,3.342-2.099,4.011c-0.254,0.11-0.598,0.274-0.765,0.026
	c-0.222-0.331,0.188-0.445,0.389-0.599c1.599-1.215,1.815-2.783,0.598-4.387c-1.083-1.425-2.652-1.924-4.309-2.215
	c-1.12-0.195-2.253-0.183-3.384-0.018c-0.601,0.09-0.879,0.229-0.68,0.991c1.192,4.557-1.043,8.974-5.393,10.738
	c-1.5,0.608-3.077,0.729-4.634,0.291c-1.341-0.377-1.86-1.51-2.037-2.765c-0.265-1.872,0.373-3.485,1.653-4.845
	c1.847-1.956,4.126-3.304,6.464-4.566C21.585,36.056,21.705,35.991,22.003,35.831z M23.394,39.025
	c-0.022-0.198-0.075-0.608-0.114-1.021c-0.045-0.479-0.203-0.611-0.679-0.354c-1.535,0.836-2.984,1.785-4.215,3.035
	c-0.803,0.816-1.444,1.74-1.752,2.863c-0.185,0.677-0.37,1.391,0.225,1.938c0.555,0.514,1.241,0.342,1.883,0.141
	C21.445,44.774,23.404,42.078,23.394,39.025z"/>
</svg>
