<?xml version="1.0" encoding="utf-8"?>
<!-- Generator: Adobe Illustrator 16.0.0, SVG Export Plug-In . SVG Version: 6.00 Build 0)  -->
<!DOCTYPE svg PUBLIC "-//W3C//DTD SVG 1.1//EN" "http://www.w3.org/Graphics/SVG/1.1/DTD/svg11.dtd">
<svg version="1.1" id="Layer_1" xmlns="http://www.w3.org/2000/svg" xmlns:xlink="http://www.w3.org/1999/xlink" x="0px" y="0px"
	 width="761.253px" height="226.992px" viewBox="17.647 192.627 761.253 226.992"
	 enable-background="new 17.647 192.627 761.253 226.992" xml:space="preserve">
<path fill="#FFFFFF" d="M176.89,304.832c-4.005,61.411-2.67,113.477-42.721,114.144c-40.718,0.668-45.725-49.396-46.058-114.144
	c0-35.378-23.363-40.051-45.391-44.723c-32.708-6.675-34.71-54.402,1.668-60.076c48.061-7.676,130.165-10.68,174.22-2.67
	c40.384,7.343,35.044,57.072,8.344,62.079C195.58,265.115,179.226,271.457,176.89,304.832z M384.152,418.309
	c-49.396,1.001-25.032-45.057-71.09-44.724c-47.393,0.334-20.359,45.058-67.085,44.724c-57.739-0.334-35.044-59.408-5.006-134.169
	c18.69-46.726,45.391-89.78,73.093-89.78c44.389,0,61.744,49.396,78.098,91.783C419.529,355.229,437.219,417.308,384.152,418.309z
	 M551.029,328.194c-28.035,3.672-41.052,13.351-45.391,65.083c-2.67,33.041-71.758,37.38-73.427-0.668
	c-1.668-38.048-5.34-95.454,3.004-164.208c5.674-48.061,99.793-34.376,119.484-26.367
	C603.763,222.061,604.764,321.186,551.029,328.194z M759.626,415.639c-27.368,2.336-58.741,2.67-86.442,2.67
	c-16.021,0-57.74,6.675-61.077-34.043c-3.338-40.718-5.341-143.181,7.676-171.884c9.012-20.025,36.38-17.689,53.067-18.023
	c27.034-1.001,41.052-0.333,68.086,1.335c43.388,2.67,36.379,45.725,15.687,49.396c-17.689,2.67-53.734-3.004-53.401,21.694
	c0,12.349,18.357,13.017,36.046,16.688c25.032,5.34,20.693,34.043,1.001,36.713c-18.356,2.336-37.047,3.338-37.38,21.36
	c-0.334,23.696,28.369,23.363,56.738,26.7C784.991,371.583,785.658,413.636,759.626,415.639z"/>
</svg>
