<?xml version="1.0" encoding="UTF-8" standalone="no"?>
<svg width="58px" height="58px" viewBox="0 0 58 58" version="1.1" xmlns="http://www.w3.org/2000/svg" xmlns:xlink="http://www.w3.org/1999/xlink">
    <!-- Generator: Sketch 43 (38999) - http://www.bohemiancoding.com/sketch -->
    <title>Group-3</title>
    <desc>Created with Sketch.</desc>
    <defs></defs>
    <g id="Page-1" stroke="none" stroke-width="1" fill="none" fill-rule="evenodd">
        <g id="buttons" transform="translate(-132.000000, 0.000000)">
            <g id="Group-3" transform="translate(132.000000, 0.000000)">
                <circle id="Oval" fill="#5999B4" cx="28.746" cy="29.148" r="28.465"></circle>
                <g id="bass" transform="translate(9.284271, 10.284271)" fill-rule="nonzero" fill="#FEFEFE">
                    <path d="M39.3667956,1.34100889 C38.8683244,1.02147556 38.2055467,1.01372 37.8416444,1.24097778 C37.7077956,1.32362667 37.5739467,1.40627111 37.4442933,1.48477333 C37.4112356,1.43457333 37.3698089,1.38435111 37.3408756,1.33832 C37.3701244,1.32598667 37.3952711,1.30111111 37.4203467,1.28456 C37.3872444,1.24270222 37.3418267,1.16322667 37.3341022,1.05482222 C37.3147156,0.783746667 37.56148,0.630857778 37.5462667,0.364004444 C37.54636,0.347315556 37.53092,0.122133333 37.3312711,0.0376711111 C37.3021867,0.0249955556 37.1774533,-0.0340266667 37.0145067,0.0276 C36.9101156,0.06456 36.8430711,0.13088 36.8095333,0.164053333 C36.7930489,0.130608889 36.7515956,0.08036 36.6808356,0.0674577778 C36.5184622,0.0290711111 36.2591111,0.194413333 36.2248489,0.360951111 C36.2119244,0.440084444 36.2574311,0.502871111 36.2864533,0.532213333 C36.2446622,0.548648889 36.1569378,0.585675556 36.0856222,0.664515556 C35.95556,0.818017778 35.9921289,0.989142222 35.9961689,1.01834667 C36.0409467,1.21450222 36.2448178,1.28649778 36.2947689,1.30343556 C36.5443867,1.38817333 36.72016,1.26405333 36.9279956,1.37357333 C37.0194889,1.41577333 37.0649911,1.47856 37.0939467,1.51622222 C37.1232444,1.49554222 37.1567333,1.47071556 37.1860267,1.45003556 C37.2149333,1.49604 37.24804,1.54624444 37.2769467,1.59224889 C36.6955022,1.96009333 36.1433822,2.30723111 35.6288711,2.63376444 C35.5874889,2.5752 35.5461067,2.51658222 35.5088978,2.46218667 C35.5381467,2.44985333 35.5632933,2.42497778 35.5883956,2.40845333 C35.5552667,2.36657333 35.5098489,2.28714667 35.5021244,2.17868889 C35.4827378,1.90761333 35.7295289,1.75474667 35.7142933,1.48787111 C35.7143867,1.47118222 35.6989467,1.246 35.49932,1.16156444 C35.4702044,1.14886222 35.3454756,1.08984 35.1825556,1.15149333 C35.0781378,1.18842667 35.0110667,1.25477333 34.9775556,1.28792 C34.9610444,1.25449778 34.9196444,1.20425333 34.8488311,1.19135111 C34.6864889,1.15293778 34.4271378,1.31828 34.3928711,1.48482222 C34.37992,1.56398222 34.4254533,1.62674222 34.4544756,1.65608444 C34.4126889,1.67252 34.3249333,1.70957333 34.2536444,1.78838667 C34.1236089,1.94191556 34.1601778,2.11304 34.1641956,2.14221778 C34.2089733,2.33837333 34.41284,2.41036889 34.4627689,2.42733333 C34.7124133,2.51204444 34.8881867,2.38797333 35.0959956,2.49747111 C35.1875111,2.53964444 35.2330178,2.60243111 35.2619956,2.64012 C35.2912667,2.61941778 35.3247556,2.59458667 35.3540533,2.57391111 C35.3870622,2.63245778 35.42432,2.68685333 35.4615289,2.74124889 C34.8758711,3.12156 34.3362356,3.46459556 33.8551022,3.78296444 C33.8095511,3.72852444 33.77232,3.67415111 33.7351111,3.61975556 C33.7643378,3.60739556 33.7894844,3.58252444 33.8146089,3.56596889 C33.78148,3.52413778 33.7360667,3.44466222 33.7283111,3.33623111 C33.7089511,3.06518222 33.9557156,2.91228889 33.9405289,2.64541333 C33.9405911,2.62874667 33.9251556,2.40356889 33.7255289,2.31908 C33.6964133,2.30642667 33.5716578,2.24738222 33.4087422,2.30903556 C33.3043511,2.34599556 33.2373067,2.41231556 33.2037644,2.44548889 C33.18728,2.41204444 33.1458578,2.36177333 33.0750667,2.34889333 C32.9126978,2.31050667 32.6533156,2.47582222 32.61908,2.64238667 C32.6061556,2.72152 32.6516622,2.78430667 32.6806622,2.81362222 C32.6388978,2.83008444 32.5511733,2.86711111 32.4798844,2.94592444 C32.3498,3.09945333 32.3863911,3.27055111 32.3904089,3.29978222 C32.4351867,3.49593778 32.6390533,3.56793333 32.6889822,3.58484444 C32.9386267,3.66960444 33.1144,3.54548444 33.3222356,3.65500444 C33.4137022,3.69717778 33.4592089,3.75996444 33.4881867,3.79765333 C33.51748,3.77697333 33.5509733,3.75214667 33.5802667,3.73146667 C33.6091511,3.78579111 33.6505556,3.83604 33.67944,3.89041778 C33.0560933,4.29970667 32.5331067,4.65117778 32.1355733,4.92830222 C32.0900222,4.87386222 32.0528178,4.81946222 32.01556,4.76506667 C32.0448133,4.75273333 32.0699556,4.72785778 32.09508,4.71130667 C32.0619289,4.66944889 32.0165378,4.59 32.0087822,4.48156889 C31.9894222,4.21052 32.2361867,4.05762667 32.2209733,3.79072444 C32.2210667,3.77408444 32.2056044,3.54888 32.0060044,3.46441778 C31.9768889,3.45176444 31.8521333,3.39272 31.6892133,3.45437333 C31.5847956,3.49130667 31.5177467,3.55762667 31.4842133,3.5908 C31.4677289,3.55735556 31.4263289,3.50710667 31.3555422,3.49423111 C31.1931467,3.45581778 30.9337911,3.62116 30.8995556,3.78772444 C30.8866044,3.86683111 30.9321111,3.92961778 30.9611333,3.95896 C30.9193689,3.97542222 30.8316444,4.01244889 30.7603289,4.09124 C30.6302667,4.24479111 30.6668622,4.41589333 30.6708533,4.44509778 C30.7156578,4.64128 30.9194978,4.71324889 30.9694489,4.73018667 C31.21912,4.81492444 31.3948667,4.69082667 31.6027022,4.80034667 C31.6941689,4.84252 31.7396756,4.90530667 31.7686533,4.94299556 C31.7979511,4.92231556 31.8314133,4.89746222 31.8607111,4.87678667 C31.8937733,4.93533333 31.9309778,4.98972889 31.9681867,5.04412444 C31.5957822,5.30469333 31.3530044,5.48679111 31.2649333,5.58220444 C31.1769333,5.66924889 30.9798933,5.87245778 30.9867822,6.13929333 C30.9983911,6.30191111 31.0850533,6.46494222 31.1428444,6.56532444 C31.25844,6.77438222 31.3374356,6.81234222 31.3782889,6.96262667 C31.4150489,7.10871556 31.3767689,7.24608 31.3429156,7.33761778 C25.84924,12.5976133 20.3555378,17.8576311 14.8660578,23.1135244 C14.7283778,23.1336133 14.3864711,23.1484178 14.1000267,22.9342533 C13.6806622,22.6276711 13.6962667,22.0566356 13.7015556,21.8524044 C13.7169333,21.3230933 13.9649511,20.9451156 14.22548,20.5630044 C14.8474489,19.6409778 15.4026533,19.4980889 15.4813867,18.8232044 C15.4987333,18.6982444 15.5336756,18.4066311 15.35564,18.1847378 C15.0865378,17.8372711 14.5026533,17.8924311 14.2732489,17.9120444 C12.6425733,18.0573956 10.9584533,20.3534667 10.87864,20.4655689 C9.70254667,22.0932667 9.31124,23.5251333 8.05382222,24.7855289 C7.76456,25.0799067 7.49659111,25.2952222 7.25392889,25.4606533 C6.40449333,26.0521333 5.61975111,26.2396222 5.24401333,26.3459378 C4.99348,26.4196044 3.08961778,26.9678356 1.84151556,28.0448622 C1.58604,28.2644178 0.0950266667,29.5485733 0.00428444444,31.6615333 C-0.0816177778,33.6620133 1.14065778,35.0317822 1.41002667,35.3208844 C2.37975556,36.3683156 3.21725333,37.2065956 3.85172444,37.8145022 C4.73502667,38.6655244 5.03802222,38.9048133 5.41609333,39.1361422 C5.80665778,39.3717067 6.9202,40.0447378 8.22522667,39.9976578 C10.0264178,39.93244 11.2847467,38.5052933 11.6917111,38.0281378 C12.3713156,37.2397956 12.7008044,36.4412311 13.1233733,35.39304 C13.8077467,33.7293289 13.7871867,32.9121644 14.6126089,32.1371378 C15.1531511,31.6273511 15.7754533,31.4097956 16.1845689,31.3036622 C16.9114667,31.0157911 17.4511467,30.6644089 17.7984978,30.4120222 C18.3844756,29.9733467 18.9746978,29.53052 19.2122844,28.7648044 C19.2886311,28.5234356 19.4244756,28.0739556 19.1930889,27.6975422 C19.1642044,27.6431689 19.0072044,27.3838578 18.7116933,27.3030711 C18.1830578,27.1542756 17.9252489,27.8073422 17.0402356,28.03596 C16.4850533,28.1788267 15.81008,28.1167822 15.3826444,27.7601333 C15.2913333,27.6846044 15.0797378,27.5042044 15.0063911,27.1953111 C14.9492978,26.9615822 15.0004089,26.7617778 15.0385244,26.6494267 C20.8865244,20.6326489 26.7344667,14.6158756 32.5866356,8.59497333 C32.66212,8.51200889 32.7794844,8.39591556 32.92612,8.25916889 C33.1398267,8.05607556 33.2529244,7.95245333 33.3908356,7.89068889 C33.6541556,7.76287111 33.9041156,7.78927111 34.0041378,7.79813333 C34.3707556,7.83348444 34.6156844,8.02241333 34.7111467,8.10213778 C34.7235689,8.11469778 34.7484889,8.13149778 34.7818444,8.13170667 C34.8110222,8.12769333 34.8361689,8.10282222 34.84456,8.09452 C34.8948533,8.04477333 35.0499689,7.88303556 35.2513422,7.65069333 C35.4023111,7.48476 35.5827556,7.26482222 35.7759644,6.99910222 C36.0573378,6.62128 36.2462844,6.36803111 36.4275467,5.99798222 C36.6257289,5.5864 36.7234533,5.24093333 36.9421556,4.89195111 C37.0472756,4.72162222 37.1816222,4.54728 37.2026,4.52653333 C37.2697378,4.44352 37.3327067,4.36468444 37.4165333,4.28176444 C37.50868,4.19891556 37.5589733,4.14916889 37.6384222,4.10372889 C37.6927511,4.07484 37.7679422,4.05021333 37.9014711,4.02593333 C38.1309378,3.98970667 38.3100622,4.01152 38.33088,4.01578222 C38.6225378,4.04238222 39.3654711,3.87135556 39.7437778,3.29814667 C39.7942311,3.22339111 40.1221289,2.71659556 39.9420311,2.10699111 C39.9257644,2.04020444 39.7863867,1.60592 39.3667956,1.34100889 Z M2.36619556,35.0384489 L3.84569333,33.5749822 L6.22950667,35.9849111 L4.75000889,37.4483778 L2.36619556,35.0384489 Z M12.1716089,25.69584 C12.1716089,25.69584 12.0667822,25.8078311 12.0200533,25.9701556 C11.9519378,26.2282356 12.4535378,26.74372 12.7645156,27.0497156 C13.3657911,27.6324044 13.6814178,27.8509022 13.8693911,27.7810667 C13.9946889,27.7317244 14.0869511,27.63216 14.0869511,27.63216 C14.1834089,27.5284933 14.2798,27.4331511 14.3762356,27.3294622 C14.47076,27.5759067 14.8373778,28.3824667 15.6943556,28.7039289 C16.2101956,28.89848 16.6857733,28.8344044 16.8485067,28.8060844 C17.09044,28.7740711 17.61196,28.6977111 18.0476044,28.3082356 C18.2779778,28.1052044 18.4167956,27.8766978 18.5583067,27.9191689 C18.6789778,27.9573556 18.7153467,28.1701333 18.72344,28.2118756 C18.8241778,28.8502311 18.0033778,29.5377333 17.6851422,29.8027689 C17.4422311,30.0099022 16.856,30.4902267 15.96632,30.81472 C15.4609022,30.99956 15.1857022,31.01472 14.7298356,31.2915556 C14.7298356,31.2915556 14.2948444,31.5559822 13.9214133,31.9999644 C12.9145911,33.1700267 12.8454622,35.14556 11.6931333,37.0068044 C11.3398356,37.5801733 10.6502756,38.66856 9.36780444,39.1659822 C8.51143556,39.4989733 7.79070222,39.41584 7.47412,39.37244 C7.16171556,39.3332133 6.24523556,39.2198533 6.11443111,38.7438889 C6.08581778,38.6395467 6.08257333,38.4686 6.17485778,38.3607156 C6.31755111,38.1864178 6.57129778,38.2836667 7.0554,38.1862667 C7.22230667,38.1538178 7.33091556,38.1127333 7.55226222,38.0347378 C8.32501333,37.7513156 8.88235556,37.2166089 9.00388889,37.0963911 C9.40620444,36.7067378 9.74564444,36.3792756 9.89462222,35.8173111 C9.9414,35.64664 10.0693111,35.1221156 9.84295556,34.5831156 C9.73178222,34.3282311 9.58667111,34.1898711 9.26329333,33.8629467 C9.00625778,33.6030933 8.61655556,33.20912 8.11495556,32.6936844 C7.53028,32.1277244 6.94142667,31.5575911 6.34840444,30.9915867 C6.23228889,30.8825911 5.96285333,30.6018089 5.89437778,30.1637378 C5.87812,30.0886178 5.85014222,29.8675422 5.93104889,29.5553156 C6.07601333,28.9641689 6.47828,28.5745156 6.68772889,28.3922356 C7.63441333,27.5470089 8.24669778,27.6462133 9.66061333,26.7368178 C10.1919022,26.3937378 10.5980267,26.0666133 10.8953556,25.8139556 C11.2053422,25.5405289 11.66192,25.1386489 12.1363867,24.5117733 C12.4303378,24.1132044 12.6407422,23.7558311 12.77976,23.4856222 C12.7923911,23.46488 12.9018844,23.2570222 13.1271333,23.2332622 C13.2563956,23.2214489 13.3561422,23.2803333 13.3685956,23.29292 C13.4641689,23.3476356 13.5178356,23.4437956 13.5790089,23.6900889 C13.6115911,23.8320089 13.6521778,24.0323156 13.6550089,24.2782622 C13.1605422,24.7508267 12.6660756,25.2233333 12.1716089,25.69584 Z" id="Shape"></path>
                    <rect id="Rectangle-path" transform="translate(9.081879, 31.892740) rotate(135.312367) translate(-9.081879, -31.892740) " x="8.49236016" y="30.7044912" width="1.17903788" height="2.37649794"></rect>
                    <rect id="Rectangle-path" transform="translate(8.878181, 29.826879) rotate(135.312367) translate(-8.878181, -29.826879) " x="8.28866239" y="28.6386299" width="1.17903788" height="2.37649794"></rect>
                </g>
            </g>
        </g>
    </g>
</svg>