<?xml version="1.0" encoding="UTF-8" standalone="no"?>
<svg width="57px" height="57px" viewBox="0 0 57 57" version="1.1" xmlns="http://www.w3.org/2000/svg" xmlns:xlink="http://www.w3.org/1999/xlink">
    <!-- Generator: Sketch 43 (38999) - http://www.bohemiancoding.com/sketch -->
    <title>Group-2</title>
    <desc>Created with Sketch.</desc>
    <defs></defs>
    <g id="Page-1" stroke="none" stroke-width="1" fill="none" fill-rule="evenodd">
        <g id="buttons" transform="translate(0.000000, -1.000000)">
            <g id="Group-2" transform="translate(0.000000, 1.000000)">
                <circle id="Oval" fill="#FDDE71" cx="28.465" cy="28.465" r="28.465"></circle>
                <g id="Group" transform="translate(14.000000, 8.000000)" fill-rule="nonzero">
                    <path d="M0.237714286,38.32 L0.237714286,0.978285714 C0.237714286,0.110857143 1.10628571,0.110857143 1.10628571,0.110857143 L21.08,0.110857143 L28.896,7.92457143 L28.896,38.32 C28.896,39.1885714 28.0274286,39.1885714 28.0274286,39.1885714 L1.10628571,39.1885714 C1.10628571,39.1885714 0.237714286,39.1885714 0.237714286,38.32 Z" id="Shape" fill="#FEFEFE"></path>
                    <path d="M1.54057143,37.0685714 L1.54057143,2.22971429 C1.54057143,1.41371429 2.33028571,1.41371429 2.33028571,1.41371429 L19.7771429,1.41371429 L19.7771429,8.36114286 C19.7771429,9.22857143 20.6457143,9.22857143 20.6457143,9.22857143 L27.592,9.22857143 L27.592,37.0697143 C27.592,37.8845714 26.8022857,37.8845714 26.8022857,37.8845714 L2.33028571,37.8845714 C2.33028571,37.8845714 1.54057143,37.8845714 1.54057143,37.0685714 Z" id="Shape" fill="#FDDE71"></path>
                    <polygon id="Shape" fill="#FEFEFE" points="11.5828571 28.3714286 3.69828571 24.0605714 3.69828571 21.672 11.5828571 17.3805714 11.5828571 20.192 6.08228571 22.8365714 11.5828571 25.5782857"></polygon>
                    <polygon id="Shape" fill="#FEFEFE" points="12.3097143 30.2662857 15.1588571 15.3085714 16.8148571 15.3085714 13.9348571 30.2662857"></polygon>
                    <polygon id="Shape" fill="#FEFEFE" points="17.5428571 28.3817143 17.5428571 25.5897143 23.0502857 22.8662857 17.5428571 20.1714286 17.5428571 17.3988571 25.4354286 21.6925714 25.4354286 24.0605714"></polygon>
                </g>
            </g>
        </g>
    </g>
</svg>