<svg height="24" viewBox="0 0 24 24" width="24" xmlns="http://www.w3.org/2000/svg"><path d="m11.9988952 0c-6.6256177 0-11.9988952 5.50850471-11.9988952 12.3040642 0 5.4359947 3.43804275 10.0471859 8.2065135 11.6741324.600387.1132965.81917775-.2666258.81917775-.5929215 0-.2923065-.01031325-1.0657485-.01620675-2.0922195-3.3378555.7432282-4.042113-1.6496063-4.042113-1.6496063-.54587325-1.4215004-1.3326375-1.7999129-1.3326375-1.7999129-1.08953625-.762867.0825075-.7477605.0825075-.7477605 1.2044565.0868612 1.8379935 1.268172 1.8379935 1.268172 1.07038275 1.8799762 2.80892625 1.3369057 3.4925565 1.0219395.1090275-.7945898.419166-1.3369058.761718-1.644318-2.6645385-.310434-5.46609825-1.3663635-5.46609825-6.081033 0-1.3429477.46778625-2.44192947 1.235397-3.30147671-.1237605-.31119-.53555925-1.56274499.11786775-3.25615873 0 0 1.00702875-.33082725 3.2995485 1.26137399.9569355-.273423 1.983855-.40938 3.0041438-.41466675 1.0195522.00528675 2.0457352.14124375 3.0041437.41466675 2.2910467-1.59220124 3.2966025-1.26137399 3.2966025-1.26137399.6549 1.69341374.2431013 2.94496873.1200772 3.25615873.7690846.85954724 1.2331868 1.95852901 1.2331868 3.30147671 0 4.726755-2.8059795 5.766822-5.478621 6.071214.4302158.3799222.8140215 1.1307045.8140215 2.2780267 0 1.6450732-.0147337 2.97216-.0147337 3.375498 0 .3293167.2165812.7122607.8250712.5921662 4.7647875-1.6307227 8.1998835-6.2388937 8.1998835-11.6733771 0-6.79555949-5.3732775-12.3040642-12.0011048-12.3040642" fill="#2e2e2e"/></svg>