<?xml version="1.0" encoding="UTF-8"?>
<svg width="24px" height="24px" viewBox="0 0 24 24" version="1.1" xmlns="http://www.w3.org/2000/svg" xmlns:xlink="http://www.w3.org/1999/xlink">
    <!-- Generator: Sketch 46.1 (44463) - http://www.bohemiancoding.com/sketch -->
    <title>github</title>
    <desc>Created with Sketch.</desc>
    <defs></defs>
    <g id="Page-1" stroke="none" stroke-width="1" fill="none" fill-rule="evenodd">
        <path d="M11.9988952,0 C5.3732775,0 0,5.50850471 0,12.3040642 C0,17.7400589 3.43804275,22.3512501 8.2065135,23.9781966 C8.8069005,24.0914931 9.02569125,23.7115708 9.02569125,23.3852751 C9.02569125,23.0929686 9.015378,22.3195266 9.0094845,21.2930556 C5.671629,22.0362838 4.9673715,19.6434493 4.9673715,19.6434493 C4.42149825,18.2219489 3.634734,17.8435364 3.634734,17.8435364 C2.54519775,17.0806694 3.7172415,17.0957759 3.7172415,17.0957759 C4.921698,17.1826371 5.555235,18.3639479 5.555235,18.3639479 C6.62561775,20.2439241 8.36416125,19.7008536 9.0477915,19.3858874 C9.156819,18.5912976 9.4669575,18.0489816 9.8095095,17.7415694 C7.144971,17.4311354 4.34341125,16.3752059 4.34341125,11.6605364 C4.34341125,10.3175887 4.8111975,9.21860693 5.57880825,8.35905969 C5.45504775,8.04786969 5.043249,6.7963147 5.696676,5.10290096 C5.696676,5.10290096 6.70370475,4.77207371 8.9962245,6.36427495 C9.95316,6.09085195 10.9800795,5.95489495 12.0003683,5.9496082 C13.0199205,5.95489495 14.0461035,6.09085195 15.004512,6.36427495 C17.2955587,4.77207371 18.3011145,5.10290096 18.3011145,5.10290096 C18.9560145,6.7963147 18.5442158,8.04786969 18.4211917,8.35905969 C19.1902763,9.21860693 19.6543785,10.3175887 19.6543785,11.6605364 C19.6543785,16.3872914 16.848399,17.4273584 14.1757575,17.7317504 C14.6059733,18.1116726 14.989779,18.8624549 14.989779,20.0097771 C14.989779,21.6548503 14.9750453,22.9819371 14.9750453,23.3852751 C14.9750453,23.7145918 15.1916265,24.0975358 15.8001165,23.9774413 C20.564904,22.3467186 24,17.7385476 24,12.3040642 C24,5.50850471 18.6267225,0 11.9988952,0" id="github" fill="#FEFEFE" fill-rule="nonzero"></path>
    </g>
</svg>