<?xml version="1.0" encoding="utf-8"?>
<!-- Generator: Adobe Illustrator 16.0.0, SVG Export Plug-In . SVG Version: 6.00 Build 0)  -->
<!DOCTYPE svg PUBLIC "-//W3C//DTD SVG 1.1//EN" "http://www.w3.org/Graphics/SVG/1.1/DTD/svg11.dtd">
<svg version="1.1" id="Layer_1" xmlns="http://www.w3.org/2000/svg" xmlns:xlink="http://www.w3.org/1999/xlink" x="0px" y="0px"
	 width="35.77px" height="35.77px" viewBox="0 0 35.77 35.77" enable-background="new 0 0 35.77 35.77" xml:space="preserve">
<path fill="#FEFEFE" d="M32.801,3.427l-31.1,12.038c-1.75,0.68-1.727,1.713,0.053,2.309l7.825,2.61l3.038,9.484
	c0.365,1.196,1.385,1.455,2.27,0.57l4.163-4.177c0.02-0.02,0.033-0.034,0.05-0.051l7.632,5.771c1.498,1.129,3.028,0.55,3.403-1.289
	l5.158-25.153C35.669,3.702,34.547,2.755,32.801,3.427z M27.75,10.158L14.806,22.296l0,0l0,0c-0.228,0.216-0.414,0.626-0.44,0.938
	l0,0l-0.344,3.986c-0.176,1.98-0.488,1.291-0.869,0.102l-2.478-7.623L26.898,9.307C29.406,7.74,29.406,8.641,27.75,10.158z"/>
</svg>
