<?xml version="1.0" encoding="UTF-8" standalone="no"?>
<svg width="57px" height="57px" viewBox="0 0 57 57" version="1.1" xmlns="http://www.w3.org/2000/svg" xmlns:xlink="http://www.w3.org/1999/xlink">
    <!-- Generator: Sketch 43 (38999) - http://www.bohemiancoding.com/sketch -->
    <title>Group-4</title>
    <desc>Created with Sketch.</desc>
    <defs></defs>
    <g id="Page-1" stroke="none" stroke-width="1" fill="none" fill-rule="evenodd">
        <g id="buttons" transform="translate(-66.000000, -1.000000)">
            <g id="Group-4" transform="translate(66.000000, 1.000000)">
                <circle id="Oval" fill="#D24E53" cx="28.466" cy="28.466" r="28.466"></circle>
                <path d="M47.9372973,42.2194595 L8.59351351,42.2194595 L8.59351351,13.8735135 L47.9383784,13.8735135 L47.9383784,42.2194595 L47.9372973,42.2194595 Z M9.51351351,41.2972973 L47.0151351,41.2972973 L47.0151351,14.7945946 L9.51351351,14.7945946 L9.51351351,41.2972973 Z" id="Shape" fill="#FEFEFE" fill-rule="nonzero"></path>
                <path d="M12.5081081,16.5318919 C12.5081081,15.9459459 12.0227027,15.4702703 11.4227027,15.4702703 C10.8248649,15.4702703 10.3394595,15.9459459 10.3394595,16.5318919 C10.3394595,17.1167568 10.8248649,17.5924324 11.4227027,17.5924324 C12.0227027,17.5924324 12.5081081,17.1167568 12.5081081,16.5318919 Z" id="Shape" fill="#FEFEFE" fill-rule="nonzero"></path>
                <rect id="Rectangle-path" fill="#FEFEFE" fill-rule="nonzero" x="11.3232432" y="39.147027" width="5.91027027" height="1.28"></rect>
                <path d="M41.6616216,17.012973 C39.812973,17.012973 38.3124324,18.48 38.3124324,20.2886486 C38.3124324,21.9016216 39.5027027,23.2367568 41.0702703,23.5113514 L41.0702703,33.6345946 L40.2972973,34.3881081 L39.8810811,33.9827027 L36.2940541,37.4897297 L36.9740541,38.1545946 L37.5481081,38.7178378 L37.5481081,38.7156757 L37.9664865,39.1254054 L41.5545946,35.6140541 L41.1372973,35.2075676 L42.252973,34.1145946 L42.252973,23.5102703 C43.8172973,23.2378378 45.0097297,21.9005405 45.0097297,20.2875676 C45.0097297,18.48 43.5102703,17.012973 41.6616216,17.012973 Z M42.2540541,22.0897297 L42.2540541,20.2897297 L41.0702703,20.2897297 L41.0702703,22.0897297 C40.2875676,21.8432432 39.7189189,21.1362162 39.7189189,20.2875676 C39.7189189,19.2367568 40.5891892,18.387027 41.6616216,18.387027 C42.7340541,18.387027 43.6054054,19.2378378 43.6054054,20.2875676 C43.6032432,21.1362162 43.0335135,21.8454054 42.2540541,22.0897297 Z" id="Shape" fill="#FEFEFE" fill-rule="nonzero"></path>
                <path d="M45.1491892,38.4778378 C44.5513514,38.4778378 44.0637838,38.9524324 44.0637838,39.5372973 C44.0637838,40.1221622 44.5513514,40.5989189 45.1491892,40.5989189 C45.747027,40.5989189 46.2335135,40.1221622 46.2335135,39.5372973 C46.2335135,38.9524324 45.7481081,38.4778378 45.1491892,38.4778378 Z" id="Shape" fill="#FEFEFE" fill-rule="nonzero"></path>
                <path d="M23.4832432,16.0324324 C16.8281081,16.0324324 11.4291892,21.3102703 11.4291892,27.8227027 C11.4291892,34.3340541 16.8281081,39.6140541 23.4832432,39.6140541 C30.1383784,39.6140541 35.5351351,34.3340541 35.5351351,27.8227027 C35.5362162,21.3102703 30.1405405,16.0324324 23.4832432,16.0324324 Z M19.1924324,27.8227027 C19.1924324,25.5027027 21.1124324,23.6237838 23.4843243,23.6237838 C25.852973,23.6237838 27.7772973,25.5027027 27.7772973,27.8227027 C27.7772973,30.1416216 25.8562162,32.0216216 23.4843243,32.0216216 C21.1135135,32.0216216 19.1924324,30.1416216 19.1924324,27.8227027 Z M25.4962162,32.9016216 C26.8562162,32.467027 27.9621622,31.4767568 28.52,30.2 L28.6994595,30.2821622 C28.1167568,31.6032432 26.9740541,32.6335135 25.5686486,33.0832432 L25.4962162,32.9016216 Z M25.9286486,34.0075676 C27.5632432,33.4335135 28.8908108,32.2302703 29.6064865,30.6983784 L29.7956757,30.7848649 C29.0572973,32.3686486 27.6897297,33.6064865 26.0032432,34.2010811 L25.9286486,34.0075676 Z M26.3610811,35.1124324 C28.2702703,34.4032432 29.8227027,32.9913514 30.6918919,31.1978378 L30.8940541,31.2918919 C30.0010811,33.1362162 28.4043243,34.5891892 26.4421622,35.3210811 L26.3610811,35.1124324 Z M26.7935135,36.2183784 C28.9783784,35.3751351 30.7578378,33.7513514 31.7783784,31.6972973 L31.9924324,31.7945946 C30.9448649,33.9016216 29.12,35.5718919 26.8789189,36.4378378 L26.7935135,36.2183784 Z M27.3178378,37.5589189 L27.227027,37.3275676 C29.6875676,36.3535135 31.7037838,34.5156757 32.8745946,32.2010811 L33.0994595,32.3037838 C31.8994595,34.6767568 29.8389189,36.5589189 27.3178378,37.5589189 Z" id="Shape" fill="#FEFEFE" fill-rule="nonzero"></path>
                <path d="M23.4832432,26.8021622 C22.907027,26.8021622 22.44,27.2583784 22.44,27.8227027 C22.44,28.3848649 22.907027,28.8421622 23.4832432,28.8421622 C24.0572973,28.8421622 24.5264865,28.387027 24.5264865,27.8227027 C24.5264865,27.2583784 24.0583784,26.8021622 23.4832432,26.8021622 Z M23.4832432,28.4183784 C23.1459459,28.4183784 22.8735135,28.1524324 22.8735135,27.8227027 C22.8735135,27.492973 23.1459459,27.2259459 23.4832432,27.2259459 C23.8205405,27.2259459 24.092973,27.4940541 24.092973,27.8227027 C24.0940541,28.1524324 23.8216216,28.4183784 23.4832432,28.4183784 Z" id="Shape" fill="#FEFEFE" fill-rule="nonzero"></path>
            </g>
        </g>
    </g>
</svg>