<svg height="24" viewBox="0 0 24 24" width="24" xmlns="http://www.w3.org/2000/svg"><g fill="#2e2e2e"><path d="m11.9962381.00757143c-3.258 0-3.66652381.01380952-4.94604762.07219047-1.27685715.0582381-2.14890477.26104762-2.91195238.55761905-.78885715.30652381-1.45785715.71671429-2.12480953 1.38361905-.66690476.66695238-1.07709524 1.33595238-1.38361905 2.12480952-.29657142.76304762-.49938095 1.63509524-.55761904 2.91195238-.05838096 1.27952381-.07219048 1.68804762-.07219048 4.9460476 0 3.2579524.01380952 3.6664762.07219048 4.946.05823809 1.2768572.26104762 2.1489048.55761904 2.9119524.30652381.7888571.71671429 1.4578571 1.38361905 2.1248095.66695238.6669048 1.33595238 1.0770953 2.12480953 1.3836667.76304761.2965238 1.63509523.4993333 2.91195238.5575714 1.27952381.058381 1.68804762.0721905 4.94604762.0721905 3.2579524 0 3.6664762-.0138095 4.946-.0721905 1.2768571-.0582381 2.1489048-.2610476 2.9119524-.5575714.7888571-.3065714 1.4578571-.7167619 2.1248095-1.3836667.6669048-.6669524 1.0770952-1.3359524 1.3836667-2.1248095.2965238-.7630476.4993333-1.6350952.5575714-2.9119524.0583809-1.2795238.0721905-1.6880476.0721905-4.946 0-3.25799998-.0138096-3.66652379-.0721905-4.9460476-.0582381-1.27685714-.2610476-2.14890476-.5575714-2.91195238-.3065715-.78885714-.7167619-1.45785714-1.3836667-2.12480952-.6669524-.66690476-1.3359524-1.07709524-2.1248095-1.38361905-.7630476-.29657143-1.6350953-.49938095-2.9119524-.55761905-1.2795238-.05838095-1.6880476-.07219047-4.946-.07219047zm0 2.16147619c3.2030952 0 3.5825238.01223809 4.8474762.06995238 1.169619.05333333 1.8048095.2487619 2.2275238.41304762.5599524.21761905.9595714.47757143 1.3793333.89738095.4198096.41976191.6797619.81938095.897381 1.37933333.1642857.42271429.3597143 1.05790477.4130476 2.22752381.0577143 1.26495239.0699524 1.64438096.0699524 4.84752379 0 3.2030953-.0122381 3.5825238-.0699524 4.8474762-.0533333 1.1696191-.2487619 1.8048095-.4130476 2.2275238-.2176191.5599524-.4775714.9595715-.897381 1.3793334-.4197619.4198095-.8193809.6797619-1.3793333.8973809-.4227143.1642857-1.0579048.3597143-2.2275238.4130476-1.2647619.0577143-1.6441429.0699524-4.8474762.0699524-3.20338096 0-3.58271429-.0122381-4.84752381-.0699524-1.16961905-.0533333-1.80480953-.2487619-2.22752381-.4130476-.55995238-.217619-.95957143-.4775714-1.37933334-.8973809-.4197619-.4197619-.6797619-.819381-.89738095-1.3793334-.16428571-.4227143-.35971429-1.0579047-.41304762-2.2275238-.05771428-1.2649524-.06995238-1.6443809-.06995238-4.8474762 0-3.20314283.0122381-3.5825714.06995238-4.84752379.05333333-1.16961904.24876191-1.80480952.41304762-2.22752381.21761905-.55995238.47757143-.95957142.89738095-1.37933333.41976191-.41980952.81938096-.6797619 1.37933334-.89738095.42271428-.16428572 1.05790476-.35971429 2.22752381-.41304762 1.26495238-.05771429 1.64438095-.06995238 4.84752381-.06995238z"/><path d="m11.9962381 16.0025238c-2.2084762 0-3.99876191-1.7902857-3.99876191-3.9987143 0-2.20847617 1.79028571-3.99876188 3.99876191-3.99876188 2.2084286 0 3.9987143 1.79028571 3.9987143 3.99876188 0 2.2084286-1.7902857 3.9987143-3.9987143 3.9987143zm0-10.15895237c-3.4022381 0-6.1602381 2.758-6.1602381 6.16023807 0 3.4021905 2.758 6.1601905 6.1602381 6.1601905 3.4021905 0 6.1601905-2.758 6.1601905-6.1601905 0-3.40223807-2.758-6.16023807-6.1601905-6.16023807z"/><path d="m19.839381 5.60019048c0 .79504762-.6445239 1.43952381-1.4395715 1.43952381-.795 0-1.4395238-.64447619-1.4395238-1.43952381s.6445238-1.43957143 1.4395238-1.43957143c.7950476 0 1.4395715.64452381 1.4395715 1.43957143"/></g></svg>